<svg width="40" height="41" viewBox="0 0 40 41" fill="none" xmlns="http://www.w3.org/2000/svg">
<path d="M0 11.5095C0 7.69486 0 5.78755 0.730584 4.32542C1.40116 2.98339 2.48925 1.8953 3.83128 1.22473C5.29341 0.494141 7.20073 0.494141 11.0154 0.494141H28.9846C32.7993 0.494141 34.7066 0.494141 36.1687 1.22473C37.5107 1.8953 38.5988 2.98339 39.2694 4.32542C40 5.78755 40 7.69487 40 11.5095V29.4788C40 33.2934 40 35.2007 39.2694 36.6629C38.5988 38.0049 37.5107 39.093 36.1687 39.7636C34.7066 40.4941 32.7993 40.4941 28.9846 40.4941H11.0154C7.20072 40.4941 5.29341 40.4941 3.83128 39.7636C2.48925 39.093 1.40116 38.0049 0.730584 36.6629C0 35.2007 0 33.2934 0 29.4788V11.5095Z" fill="#FFF9EA"/>
<g clip-path="url(#clip0_21_478)">
<path d="M27.9607 10.4236H25.6512V9.26883C25.6512 8.96257 25.5296 8.66885 25.313 8.45229C25.0964 8.23574 24.8027 8.11407 24.4965 8.11407C24.1902 8.11407 23.8965 8.23574 23.6799 8.45229C23.4634 8.66885 23.3417 8.96257 23.3417 9.26883V10.4236H16.4132V9.26883C16.4132 8.96257 16.2915 8.66885 16.075 8.45229C15.8584 8.23574 15.5647 8.11407 15.2585 8.11407C14.9522 8.11407 14.6585 8.23574 14.4419 8.45229C14.2254 8.66885 14.1037 8.96257 14.1037 9.26883V10.4236H11.7942C10.8754 10.4236 9.99429 10.7886 9.34461 11.4382C8.69494 12.0879 8.32996 12.9691 8.32996 13.8878V27.7448C8.32996 28.6636 8.69494 29.5448 9.34461 30.1944C9.99429 30.8441 10.8754 31.2091 11.7942 31.2091H27.9607C28.8795 31.2091 29.7606 30.8441 30.4103 30.1944C31.06 29.5448 31.425 28.6636 31.425 27.7448V13.8878C31.425 12.9691 31.06 12.0879 30.4103 11.4382C29.7606 10.7886 28.8795 10.4236 27.9607 10.4236ZM29.1155 27.7448C29.1155 28.0511 28.9938 28.3448 28.7773 28.5614C28.5607 28.7779 28.267 28.8996 27.9607 28.8996H11.7942C11.4879 28.8996 11.1942 28.7779 10.9777 28.5614C10.7611 28.3448 10.6395 28.0511 10.6395 27.7448V19.6616H29.1155V27.7448ZM29.1155 17.3521H10.6395V13.8878C10.6395 13.5816 10.7611 13.2879 10.9777 13.0713C11.1942 12.8547 11.4879 12.7331 11.7942 12.7331H14.1037V13.8878C14.1037 14.1941 14.2254 14.4878 14.4419 14.7044C14.6585 14.9209 14.9522 15.0426 15.2585 15.0426C15.5647 15.0426 15.8584 14.9209 16.075 14.7044C16.2915 14.4878 16.4132 14.1941 16.4132 13.8878V12.7331H23.3417V13.8878C23.3417 14.1941 23.4634 14.4878 23.6799 14.7044C23.8965 14.9209 24.1902 15.0426 24.4965 15.0426C24.8027 15.0426 25.0964 14.9209 25.313 14.7044C25.5296 14.4878 25.6512 14.1941 25.6512 13.8878V12.7331H27.9607C28.267 12.7331 28.5607 12.8547 28.7773 13.0713C28.9938 13.2879 29.1155 13.5816 29.1155 13.8878V17.3521Z" fill="#FDB557"/>
</g>
<defs>
<clipPath id="clip0_21_478">
<rect width="24" height="24" fill="white" transform="translate(8 8.49414)"/>
</clipPath>
</defs>
</svg>
