<svg width="12" height="12" viewBox="0 0 12 12" fill="none" xmlns="http://www.w3.org/2000/svg">
<path fill-rule="evenodd" clip-rule="evenodd" d="M6.47139 0.86198C6.21104 0.60163 5.78893 0.60163 5.52858 0.86198C5.26823 1.12233 5.26823 1.54444 5.52858 1.80479L9.05724 5.33345H1.33332C0.965133 5.33345 0.666656 5.63193 0.666656 6.00012C0.666656 6.36831 0.965133 6.66678 1.33332 6.66678H9.05711L5.52858 10.1953C5.26823 10.4557 5.26823 10.8778 5.52858 11.1381C5.78893 11.3985 6.21104 11.3985 6.47139 11.1381L11.1381 6.47146C11.3984 6.21111 11.3984 5.789 11.1381 5.52865L6.47139 0.86198Z" fill="#40A3F8"/>
<path d="M5.52858 0.86198L5.17502 0.508426L5.17502 0.508426L5.52858 0.86198ZM6.47139 0.86198L6.82494 0.508426V0.508426L6.47139 0.86198ZM5.52858 1.80479L5.17502 2.15834L5.17502 2.15834L5.52858 1.80479ZM9.05724 5.33345V5.83345C9.25947 5.83345 9.44179 5.71163 9.51918 5.52479C9.59657 5.33795 9.55379 5.12289 9.41079 4.9799L9.05724 5.33345ZM9.05711 6.66678L9.41066 7.02034C9.55366 6.87734 9.59644 6.66228 9.51905 6.47544C9.44166 6.2886 9.25934 6.16678 9.05711 6.16678V6.66678ZM5.52858 11.1381L5.17502 11.4917L5.52858 11.1381ZM6.47139 11.1381L6.82494 11.4917L6.47139 11.1381ZM11.1381 6.47146L10.7845 6.1179L10.7845 6.1179L11.1381 6.47146ZM11.1381 5.52865L10.7845 5.8822L10.7845 5.8822L11.1381 5.52865ZM5.88213 1.21553C5.94722 1.15045 6.05274 1.15045 6.11783 1.21553L6.82494 0.508426C6.36933 0.0528147 5.63064 0.0528147 5.17502 0.508426L5.88213 1.21553ZM5.88213 1.45124C5.81704 1.38615 5.81704 1.28062 5.88213 1.21553L5.17502 0.508426C4.71941 0.964038 4.71941 1.70273 5.17502 2.15834L5.88213 1.45124ZM9.41079 4.9799L5.88213 1.45124L5.17502 2.15834L8.70368 5.687L9.41079 4.9799ZM1.33332 5.83345H9.05724V4.83345H1.33332V5.83345ZM1.16666 6.00012C1.16666 5.90807 1.24128 5.83345 1.33332 5.83345V4.83345C0.688991 4.83345 0.166656 5.35578 0.166656 6.00012H1.16666ZM1.33332 6.16678C1.24128 6.16678 1.16666 6.09216 1.16666 6.00012H0.166656C0.166656 6.64445 0.688991 7.16678 1.33332 7.16678V6.16678ZM9.05711 6.16678H1.33332V7.16678H9.05711V6.16678ZM5.88213 10.5489L9.41066 7.02034L8.70355 6.31323L5.17502 9.84176L5.88213 10.5489ZM5.88213 10.7846C5.81704 10.7195 5.81704 10.614 5.88213 10.5489L5.17502 9.84176C4.71941 10.2974 4.71941 11.0361 5.17502 11.4917L5.88213 10.7846ZM6.11783 10.7846C6.05275 10.8497 5.94722 10.8497 5.88213 10.7846L5.17502 11.4917C5.63064 11.9473 6.36933 11.9473 6.82494 11.4917L6.11783 10.7846ZM10.7845 6.1179L6.11783 10.7846L6.82494 11.4917L11.4916 6.82501L10.7845 6.1179ZM10.7845 5.8822C10.8496 5.94729 10.8496 6.05281 10.7845 6.1179L11.4916 6.82501C11.9472 6.3694 11.9472 5.6307 11.4916 5.17509L10.7845 5.8822ZM6.11783 1.21553L10.7845 5.8822L11.4916 5.17509L6.82494 0.508426L6.11783 1.21553Z" fill="#40A3F8"/>
</svg>
