<svg width="261" height="205" viewBox="0 0 261 205" fill="none" xmlns="http://www.w3.org/2000/svg">
<path d="M221.939 31.01L220.595 28.7689C209.227 10.0336 188.66 -1.25571 167.005 0.111334C164.218 0.280314 161.446 0.654842 158.713 1.23187C139.009 5.44506 121.87 20.3425 114.766 39.4252C110.587 50.6305 109.416 63.567 101.488 72.4808C91.1678 84.0727 73.6483 84.4369 58.241 83.9607C42.8337 83.4845 25.303 83.8879 15.0333 95.5246C8.60146 102.808 6.5565 113.179 7.07754 122.938C8.45019 148.783 26.4571 171.889 49.3552 183.374C72.2532 194.86 99.2188 195.919 124.28 190.876C159.391 183.8 192.778 164.364 212.852 134.345C232.926 104.326 237.997 63.4102 221.939 31.01Z" fill="white" fill-opacity="0.1"/>
<path d="M173.492 83.2776C173.156 78.0055 170.937 72.9743 167.827 68.7107C166.264 66.5593 164.421 64.4695 163.861 61.8699C163.121 58.4074 164.763 54.4352 162.869 51.4377C161.541 49.3255 158.841 48.4515 157.328 46.4682C155.698 44.3392 155.737 41.3978 154.773 38.899C153.81 36.4002 150.56 34.2488 148.571 36.0528C148.19 31.341 148.952 28.6965 144.935 26.2146C140.918 23.7326 132.996 24.9316 131.455 29.3969C128.037 26.5395 121.79 23.7942 117.863 25.8896C115.443 27.1894 113.588 29.3184 111.336 30.8984C107.845 33.3411 103.582 34.3552 99.6767 36.0752C95.7716 37.7953 91.9114 40.647 91.0038 44.8154C90.337 47.8912 91.4128 51.124 90.8469 54.2166C90.3651 56.8219 88.7739 59.0573 87.5525 61.4049C86.5271 63.3721 85.7445 65.4566 85.2218 67.6126C84.2021 71.8146 84.768 77.2324 88.6899 79.0532C87.2754 79.4569 86.0481 80.3455 85.2231 81.5634C84.3981 82.7812 84.028 84.2505 84.1777 85.7138C84.3273 87.1772 84.9872 88.5411 86.0417 89.5667C87.0962 90.5923 88.4779 91.2141 89.9449 91.323L83.3393 103.296C82.7286 104.416 82.0955 105.627 82.3028 106.876C82.5942 108.618 84.4823 109.717 86.2247 109.733C87.9671 109.75 89.6479 108.96 91.2279 108.187C91.7848 109.226 92.6197 110.091 93.6395 110.683C94.6592 111.275 95.8235 111.572 97.0023 111.541C98.1811 111.509 99.3279 111.151 100.315 110.505C101.301 109.859 102.089 108.952 102.59 107.884C103.257 109.114 104.241 110.141 105.441 110.86C106.64 111.578 108.011 111.961 109.409 111.969C110.808 111.976 112.182 111.608 113.39 110.902C114.597 110.196 115.592 109.179 116.272 107.957L143.097 101.794L163.323 99.9287C166.259 99.6542 169.531 99.2004 171.329 96.8697C172.494 95.3513 172.763 93.3456 173.01 91.4463C173.418 88.7437 173.579 86.0095 173.492 83.2776Z" fill="#263238"/>
<path d="M126.653 157.49L113.7 123.123L120.423 116.4L120.16 114.238C119.426 108.831 119.157 106.612 119.157 106.663C119.157 106.713 107.504 106.175 103.302 91.5693C101.212 84.2858 100.086 72.1056 99.4862 62.0993C98.926 53.0902 103.52 41.3695 112.54 41.2406L141.22 44.8431C142.542 44.8193 143.825 45.2925 144.815 46.1692C145.805 47.0459 146.429 48.2622 146.565 49.5774L151.535 109.868L155.339 113.123L159.922 154.879L126.653 157.49Z" fill="#B47266"/>
<path d="M106.081 73.7198C106.141 74.2149 106.392 74.6671 106.78 74.9808C107.168 75.2944 107.662 75.445 108.159 75.4006C108.405 75.3906 108.645 75.3316 108.868 75.227C109.09 75.1224 109.289 74.9744 109.453 74.7916C109.617 74.6088 109.742 74.3949 109.822 74.1627C109.902 73.9305 109.935 73.6846 109.918 73.4396C109.856 72.9451 109.605 72.4937 109.218 72.1803C108.83 71.8669 108.336 71.7159 107.84 71.7588C107.595 71.7695 107.354 71.829 107.132 71.9339C106.91 72.0387 106.712 72.1868 106.548 72.3694C106.384 72.5521 106.258 72.7656 106.178 72.9975C106.098 73.2293 106.065 73.4749 106.081 73.7198Z" fill="#263238"/>
<path d="M125.186 72.0944C125.246 72.5896 125.497 73.0418 125.885 73.3554C126.273 73.6691 126.768 73.8196 127.264 73.7752C127.51 73.7646 127.751 73.7049 127.973 73.5996C128.194 73.4944 128.393 73.3457 128.557 73.1623C128.72 72.979 128.845 72.7647 128.924 72.5322C129.004 72.2997 129.035 72.0537 129.018 71.8087C128.96 71.3134 128.711 70.8604 128.324 70.5463C127.936 70.2323 127.442 70.0821 126.945 70.1279C126.699 70.1378 126.458 70.1969 126.235 70.3019C126.013 70.4068 125.813 70.5554 125.649 70.7388C125.485 70.9222 125.36 71.1367 125.28 71.3696C125.2 71.6025 125.168 71.8489 125.186 72.0944Z" fill="#263238"/>
<path d="M102.921 69.0808C103.19 69.2993 104.501 68.05 106.562 67.8034C108.624 67.5569 110.249 68.3973 110.445 68.1172C110.54 67.9939 110.243 67.5569 109.526 67.1759C108.56 66.6684 107.46 66.4727 106.377 66.6157C105.308 66.7417 104.306 67.207 103.52 67.9435C102.949 68.5094 102.792 68.9688 102.921 69.0808Z" fill="#263238"/>
<path d="M123.354 67.3998C123.623 67.6183 124.939 66.3689 126.995 66.1224C129.052 65.8759 130.682 66.7163 130.878 66.4362C130.973 66.3129 130.676 65.8759 129.959 65.4949C128.993 64.9873 127.893 64.7916 126.811 64.9346C125.742 65.0637 124.741 65.5286 123.953 66.2625C123.382 66.8283 123.225 67.2878 123.354 67.3998Z" fill="#263238"/>
<path d="M117.622 82.1403C117.622 82.0226 116.317 81.9554 114.21 81.9498C113.65 81.9498 113.168 81.9162 113.033 81.5688C112.925 81.0305 112.982 80.472 113.196 79.9664L114.255 75.7813C115.712 69.82 116.692 64.9513 116.451 64.8897C116.21 64.8281 114.837 69.6183 113.381 75.5796C113.039 77.0475 112.708 78.4425 112.389 79.7815C112.266 80.4034 112.008 81.1206 112.389 81.8769C112.488 82.0524 112.626 82.203 112.792 82.3176C112.958 82.4321 113.148 82.5075 113.347 82.5381C113.648 82.5769 113.954 82.5769 114.255 82.5381C116.311 82.4148 117.622 82.2579 117.622 82.1403Z" fill="#263238"/>
<path d="M119.174 106.646C126.204 105.888 132.886 103.194 138.475 98.864C138.475 98.864 134.738 109.868 119.65 110.31L119.174 106.646Z" fill="#89544C"/>
<path d="M118.317 87.4237C119.437 86.1519 122.536 84.1294 123.555 83.8773C124.575 83.6251 124.513 84.8745 125.236 85.7597C125.602 86.2435 125.829 86.8184 125.891 87.422C125.954 88.0256 125.849 88.6347 125.589 89.183C124.956 90.4324 123.623 91.5137 122.407 91.3792C121.191 91.2447 120.048 90.029 119.045 89.3286C118.743 89.1548 118.486 88.9131 118.294 88.6227C118.196 88.4609 118.141 88.2769 118.133 88.0878C118.125 87.8987 118.165 87.7107 118.25 87.5414" fill="#89544C"/>
<path d="M121.157 59.8249C121.426 60.3572 123.449 59.8249 125.897 59.8249C128.346 59.8249 130.379 60.2395 130.632 59.696C130.749 59.4383 130.346 58.9565 129.511 58.5139C128.385 57.9654 127.144 57.6945 125.892 57.7239C124.638 57.7282 123.404 58.0296 122.289 58.6035C121.426 59.0742 121.034 59.5672 121.157 59.8249Z" fill="#263238"/>
<path d="M102.635 61.8752C103.055 62.2954 104.411 61.6398 106.114 61.4045C107.817 61.1692 109.297 61.3317 109.565 60.805C109.683 60.5473 109.397 60.1047 108.714 59.7405C107.799 59.3122 106.778 59.1661 105.78 59.3208C104.782 59.4754 103.853 59.9239 103.111 60.609C102.585 61.1636 102.45 61.6847 102.635 61.8752Z" fill="#263238"/>
<path d="M144.935 68.2007C145.126 68.0775 152.874 64.4581 153.899 72.7781C154.925 81.098 146.33 80.3921 146.285 80.1736C146.24 79.9551 144.935 68.2007 144.935 68.2007Z" fill="#B47266"/>
<path d="M148.437 76.6998C148.47 76.6662 148.593 76.7838 148.851 76.8623C149.214 76.9697 149.603 76.9315 149.938 76.7558C150.778 76.3244 151.35 74.8397 151.204 73.3382C151.142 72.6213 150.918 71.9279 150.549 71.31C150.44 71.0597 150.272 70.8397 150.059 70.6688C149.846 70.498 149.595 70.3816 149.327 70.3296C149.155 70.3072 148.979 70.3452 148.831 70.437C148.683 70.5289 148.572 70.6691 148.515 70.8338C148.437 71.0803 148.515 71.2372 148.465 71.2596C148.414 71.282 148.269 71.1419 148.297 70.789C148.314 70.5766 148.407 70.3777 148.56 70.2287C148.662 70.1283 148.782 70.0493 148.915 69.9964C149.048 69.9435 149.19 69.9177 149.333 69.9206C149.687 69.9447 150.028 70.0609 150.322 70.2574C150.617 70.4539 150.856 70.7241 151.014 71.0411C151.455 71.7124 151.725 72.4821 151.798 73.2822C151.949 74.963 151.283 76.6438 150.117 77.1312C149.901 77.2235 149.667 77.2659 149.432 77.2552C149.198 77.2445 148.968 77.1811 148.762 77.0696C148.487 76.8959 148.437 76.7166 148.437 76.6998Z" fill="#89544C"/>
<path d="M152.314 79.0867C152.314 79.1203 152.544 79.1596 152.902 79.3613C153.401 79.6561 153.793 80.1013 154.023 80.6331C154.202 81.0115 154.278 81.4308 154.242 81.848C154.207 82.2653 154.061 82.6658 153.821 83.0086C153.527 83.4277 153.125 83.7584 152.657 83.9648C152.188 84.1712 151.673 84.2455 151.165 84.1795C150.705 84.0898 150.272 83.8938 149.9 83.6071C149.529 83.3204 149.23 82.951 149.026 82.5283C148.823 82.1056 148.721 81.6412 148.728 81.1721C148.736 80.703 148.853 80.2422 149.07 79.8263C149.335 79.3044 149.719 78.8517 150.19 78.5041C150.386 78.395 150.573 78.2714 150.751 78.1343C150.528 78.1697 150.315 78.2539 150.129 78.3808C149.598 78.7033 149.162 79.1592 148.863 79.703C148.628 80.1085 148.485 80.5602 148.444 81.0266C148.402 81.4931 148.463 81.963 148.622 82.4035C148.816 82.9497 149.15 83.4355 149.591 83.8129C150.031 84.1903 150.562 84.4461 151.132 84.5549C151.709 84.6326 152.297 84.5473 152.828 84.3088C153.36 84.0702 153.814 83.6878 154.14 83.2047C154.429 82.7835 154.587 82.2865 154.594 81.776C154.593 81.3379 154.49 80.9062 154.292 80.5154C154.02 79.9483 153.558 79.4943 152.986 79.2324C152.781 79.1192 152.547 79.0686 152.314 79.0867Z" fill="#455A64"/>
<path d="M121.544 91.1322C121.544 91.1042 121.634 91.1322 121.746 91.1714C121.892 91.2542 122.046 91.3236 122.205 91.3787C122.5 91.4289 122.802 91.4164 123.091 91.342C123.381 91.2677 123.652 91.1332 123.886 90.9473C124.255 90.7533 124.59 90.4996 124.877 90.1966C125.206 89.8564 125.477 89.4646 125.679 89.0368C125.883 88.5919 125.94 88.0933 125.841 87.6137C125.703 87.0809 125.442 86.5878 125.079 86.1739C124.34 85.2494 123.398 84.4651 122.524 84.5323C122.072 84.5978 121.641 84.7665 121.264 85.0253C120.866 85.2774 120.485 85.5296 120.143 85.7593C118.793 86.6725 118.261 87.5353 118.149 87.4793C118.037 87.4233 118.149 87.1879 118.412 86.7733C118.78 86.2045 119.235 85.6976 119.762 85.2718C120.087 84.9973 120.446 84.7116 120.883 84.4258C121.342 84.0598 121.888 83.8203 122.468 83.7311C123.144 83.6902 123.812 83.8885 124.356 84.2914C124.895 84.6705 125.375 85.1274 125.78 85.6472C126.228 86.1672 126.543 86.7882 126.698 87.4569C126.821 88.1133 126.727 88.7918 126.429 89.3898C126.299 89.6553 126.14 89.9053 125.953 90.1349C125.78 90.3451 125.593 90.5435 125.393 90.7288C125.035 91.0626 124.619 91.3285 124.166 91.5132C123.813 91.6904 123.435 91.8113 123.045 91.8718C122.788 91.9144 122.524 91.8846 122.282 91.7856C122.041 91.6867 121.832 91.5225 121.678 91.3115C121.583 91.2163 121.544 91.1546 121.544 91.1322Z" fill="#263238"/>
<path d="M152.134 94.1247C152.173 94.1175 152.213 94.1175 152.252 94.1247L152.577 94.1583C153.005 94.1862 153.434 94.1768 153.86 94.1303C155.474 93.9388 156.996 93.2763 158.236 92.2254C160.107 90.5593 161.418 88.356 161.989 85.9168C162.393 84.4463 162.581 82.9254 162.55 81.401C162.525 79.7212 162.081 78.0743 161.256 76.6108L161.222 76.5547L161.25 76.4931C161.835 75.2266 162.159 73.8554 162.204 72.461C162.249 71.0667 162.013 69.6775 161.51 68.3762C161.007 67.0748 160.248 65.8878 159.277 64.8856C158.307 63.8835 157.145 63.0867 155.86 62.5425L155.642 62.4472L155.827 62.2904C156.203 61.9857 156.508 61.6035 156.723 61.1698C157.23 60.0772 157.297 58.8309 156.908 57.6906C156.518 56.5741 155.91 55.5459 155.121 54.6652C154.396 53.7749 153.513 53.0264 152.515 52.4577C151.572 51.8856 150.449 51.6858 149.367 51.8974L149.042 51.9759L149.215 51.6901C149.751 50.8248 150.015 49.8193 149.975 48.8025C149.935 47.7858 149.591 46.8043 148.989 45.9841C148.387 45.1639 147.553 44.5425 146.595 44.1995C145.637 43.8565 144.599 43.8077 143.613 44.0593L143.422 44.1098L143.478 43.9193C143.773 42.8839 143.815 41.7929 143.601 40.738C143.386 39.6831 142.921 38.6952 142.246 37.8572C141.948 37.509 141.607 37.2002 141.232 36.9384C140.885 36.7019 140.508 36.5134 140.111 36.3781C139.404 36.1342 138.654 36.0444 137.909 36.1148C137.31 36.1688 136.725 36.3241 136.178 36.5742C135.782 36.7632 135.414 37.0064 135.086 37.2969C134.824 37.5525 134.582 37.8279 134.363 38.1205C134.405 38.0384 134.454 37.9597 134.508 37.8852C134.659 37.6531 134.838 37.4404 135.041 37.2521C135.374 36.9416 135.751 36.6829 136.161 36.4845C136.713 36.2213 137.306 36.0545 137.915 35.9915C138.68 35.9047 139.454 35.9869 140.184 36.2324C140.6 36.3642 140.996 36.5527 141.361 36.7927C141.751 37.0614 142.107 37.3776 142.419 37.7339C143.122 38.5931 143.608 39.6085 143.836 40.6947C144.064 41.7809 144.028 42.906 143.73 43.9753L143.59 43.8352C144.623 43.5757 145.709 43.6296 146.71 43.9901C147.712 44.3507 148.583 45.0014 149.213 45.8593C149.843 46.7172 150.203 47.7434 150.248 48.8068C150.292 49.8703 150.018 50.9229 149.462 51.8302L149.311 51.6229C150.462 51.3891 151.659 51.5887 152.672 52.1832C153.702 52.7685 154.614 53.5398 155.362 54.4579C156.177 55.3657 156.803 56.4265 157.205 57.5785C157.621 58.7904 157.549 60.1169 157.003 61.2763C156.775 61.7518 156.444 62.1708 156.034 62.5033L156 62.2568C157.321 62.8131 158.516 63.6305 159.513 64.6599C160.511 65.6893 161.29 66.9094 161.804 68.2472C162.318 69.585 162.557 71.0129 162.506 72.4452C162.455 73.8776 162.116 75.2849 161.508 76.5827V76.4651C162.355 77.965 162.806 79.656 162.819 81.3786C162.844 82.9255 162.642 84.4678 162.219 85.956C161.628 88.4328 160.276 90.6624 158.353 92.3318C157.081 93.3899 155.519 94.0401 153.871 94.1975C153.441 94.2389 153.007 94.2389 152.577 94.1975L152.246 94.1415L152.134 94.1247Z" fill="#455A64"/>
<path d="M149.361 64.1782C149.143 58.5363 148.902 52.7768 146.879 47.5047C146.492 46.283 145.8 45.1801 144.868 44.2999C144.035 43.6772 143.081 43.2363 142.067 43.0057C140.503 42.5631 140.078 41.5042 138.458 41.3866C132.296 36.1481 123.449 34.3552 115.639 36.4618C107.829 38.5684 101.178 44.4232 97.8056 51.7795C94.486 59.2666 94.2445 67.759 97.1332 75.4227C96.6122 69.4279 100.411 63.8084 105.067 59.993C109.722 56.1776 115.291 53.6452 120.194 50.1883C120.15 51.0226 119.927 51.8377 119.541 52.5782C119.154 53.3187 118.612 53.9673 117.953 54.48C121.841 53.4379 125.796 52.3734 129.298 50.4348C130.087 50.0047 130.849 49.5257 131.578 49.0006C131.657 49.916 131.91 50.8079 132.324 51.6282C133.64 54.211 136.464 55.5893 138.615 57.5334C138.895 57.7529 139.12 58.035 139.271 58.357C139.406 58.8889 139.368 59.4499 139.164 59.9594C138.614 61.6357 138.423 63.4092 138.604 65.1642C138.867 66.9011 139.842 68.6099 141.405 69.3662C140.823 70.2831 140.541 71.3589 140.599 72.4437C140.657 73.5284 141.053 74.5679 141.73 75.4171C141.913 75.6763 142.18 75.8628 142.487 75.9437C142.997 76.0166 143.422 75.574 143.714 75.1482C144.574 73.9083 145.164 72.5015 145.445 71.019C145.487 70.3873 145.679 69.7747 146.005 69.2318C146.565 68.5202 147.608 68.3745 148.297 67.7751C149.384 66.9291 149.412 65.4612 149.361 64.1782Z" fill="#263238"/>
<path d="M105.543 51.1411C105.568 50.9981 105.606 50.8576 105.655 50.7209C105.799 50.3278 105.987 49.9519 106.215 49.6004C107.033 48.2858 108.321 47.3322 109.818 46.9335L109.734 47.0344C109.821 46.2243 109.988 45.4248 110.232 44.6476C110.517 43.7779 110.893 42.9404 111.353 42.1488C112.42 40.3698 113.912 38.8836 115.695 37.8236C116.493 37.3379 117.352 36.9611 118.25 36.7031C118.694 36.5887 119.155 36.5545 119.611 36.6022C120.072 36.6502 120.498 36.8703 120.804 37.2185H120.586C121.595 35.9157 122.891 34.8631 124.373 34.1426C125.695 33.4871 127.074 33.2126 128.144 33.5319C128.562 33.6462 128.947 33.8582 129.268 34.1504C129.588 34.4426 129.835 34.8067 129.987 35.2127C130.063 35.4287 130.099 35.6564 130.094 35.8851C130.097 35.963 130.085 36.0409 130.06 36.1148C130.059 35.8178 130.004 35.5236 129.897 35.2464C129.735 34.8707 129.488 34.5374 129.176 34.2722C128.864 34.007 128.496 33.817 128.099 33.7168C127.079 33.4367 125.763 33.7168 124.48 34.3723C123.041 35.0921 121.785 36.1284 120.804 37.4034L120.698 37.5378L120.591 37.409C120.087 36.8039 119.14 36.7871 118.317 36.9944C117.448 37.2429 116.615 37.6046 115.84 38.0701C114.101 39.1095 112.641 40.5576 111.588 42.2889C111.13 43.0598 110.755 43.8767 110.467 44.7261C110.219 45.4844 110.045 46.2649 109.946 47.0568V47.1184H109.874C108.418 47.4885 107.15 48.3846 106.316 49.634C106.015 50.113 105.756 50.6173 105.543 51.1411Z" fill="#455A64"/>
<path d="M95.43 101.256L95.2899 101.469L94.8417 102.102L94.8081 102.147V102.091C94.2114 100.284 93.9106 98.3918 93.9172 96.4885C93.9168 93.1096 94.8347 89.7942 96.5729 86.8967L96.6233 87.0536C95.5262 86.5353 94.5971 85.7187 93.9422 84.6972C93.2873 83.6757 92.933 82.4906 92.92 81.2773C92.9036 80.6172 93.0022 79.9594 93.2113 79.3331C93.3284 79.0356 93.4184 78.728 93.4802 78.4143C93.4994 78.2661 93.4869 78.1155 93.4434 77.9726C93.3999 77.8296 93.3266 77.6975 93.2281 77.5851C93.0048 77.3411 92.7632 77.1144 92.5054 76.9072C92.2451 76.6768 91.9982 76.4318 91.7658 76.1732C91.2952 75.6451 90.882 75.0686 90.5332 74.4532C89.6065 72.8009 89.1936 70.9097 89.3473 69.0215C89.501 67.1332 90.2143 65.3337 91.396 63.853C91.6399 63.5428 91.9038 63.249 92.186 62.9734C92.4662 62.7044 92.7463 62.4411 92.7463 62.1106C92.6878 61.739 92.5843 61.3759 92.4381 61.0292C92.3062 60.6501 92.1995 60.2627 92.1188 59.8695C91.9468 59.0763 91.8641 58.2663 91.8723 57.4548C91.8685 55.7422 92.2374 54.0494 92.9533 52.4937C93.6692 50.938 94.7151 49.5567 96.0182 48.4457C96.6457 47.9134 97.3517 47.4932 97.6598 46.7649C97.81 46.4034 97.9245 46.0281 98.0016 45.6444C98.1024 45.2578 98.2313 44.8768 98.3433 44.4958C98.8643 43.0286 99.6611 41.6746 100.691 40.5067C102.591 38.3221 105.145 36.809 107.974 36.1927C109.248 35.9389 110.553 35.8747 111.846 36.0022C112.133 36.0268 112.422 35.9726 112.681 35.8453C112.916 35.6818 113.134 35.494 113.33 35.285L113.98 34.6743L114.658 34.1141C115.527 33.4607 116.466 32.9081 117.46 32.4669C118.349 32.0823 119.274 31.7858 120.222 31.5817C121.736 31.2448 123.296 31.1597 124.838 31.3296C125.816 31.4443 126.778 31.666 127.707 31.9907L128.413 32.2708L128.654 32.3773L128.402 32.2988L127.69 32.0467C126.76 31.7662 125.805 31.5785 124.838 31.4864C123.308 31.3395 121.765 31.4398 120.267 31.7834C119.334 31.9955 118.425 32.2956 117.549 32.6798C116.572 33.1227 115.648 33.6733 114.793 34.3214L114.132 34.8817L113.493 35.4867C113.286 35.717 113.053 35.922 112.798 36.0974C112.507 36.248 112.179 36.314 111.851 36.2879C111.532 36.2879 111.224 36.2431 110.91 36.2431C110.597 36.2235 110.282 36.2235 109.969 36.2431C109.319 36.2762 108.673 36.3586 108.036 36.4896C105.269 37.1096 102.773 38.6 100.915 40.742C99.9085 41.8906 99.1325 43.2221 98.6291 44.6639C98.5226 45.0337 98.3938 45.4034 98.2985 45.7844C98.2159 46.1833 98.0958 46.5734 97.9399 46.9498C97.587 47.7566 96.8194 48.2048 96.2199 48.7202C94.9524 49.8058 93.9353 51.1534 93.2389 52.67C92.5425 54.1867 92.1833 55.8363 92.186 57.5052C92.1787 58.2961 92.2595 59.0853 92.4269 59.8583C92.507 60.2382 92.6118 60.6125 92.7407 60.9788C92.9012 61.3563 93.0087 61.7541 93.06 62.161C93.0241 62.3727 92.9467 62.5752 92.8323 62.7569C92.7179 62.9387 92.5687 63.096 92.3933 63.2199C92.1214 63.4889 91.8652 63.7732 91.6258 64.0715C90.2626 65.7856 89.5497 67.9267 89.6133 70.1158C89.6768 72.305 90.5128 74.4011 91.9731 76.0332C92.196 76.2859 92.4336 76.5254 92.6847 76.7503C92.9551 76.9652 93.2063 77.2033 93.4354 77.4618C93.556 77.6014 93.6458 77.7649 93.6989 77.9416C93.752 78.1183 93.7672 78.3042 93.7436 78.4871C93.681 78.819 93.5853 79.1437 93.4578 79.4564C93.259 80.0541 93.1624 80.681 93.1721 81.3109C93.178 82.4827 93.513 83.6293 94.1391 84.62C94.7652 85.6106 95.657 86.4053 96.713 86.9135L96.825 86.9639L96.7634 87.0704C95.8017 88.6333 95.0838 90.3336 94.6344 92.1128C93.7882 95.4222 93.8638 98.9 94.8529 102.17H94.8025L95.2675 101.553C95.3149 101.451 95.3692 101.352 95.43 101.256Z" fill="#455A64"/>
<path d="M145.378 27.2456C144.499 27.1335 143.614 27.0718 142.728 27.0607C141.777 27.0764 140.841 27.3022 139.988 27.7219C138.944 28.2289 138.14 29.1235 137.747 30.215C137.685 30.4126 137.64 30.615 137.612 30.8201V30.9546H137.484C136.394 30.9122 135.308 31.1151 134.307 31.5485C133.502 31.9064 132.807 32.4732 132.295 33.19C131.951 33.6702 131.707 34.2153 131.578 34.7924C131.494 35.2014 131.489 35.4367 131.466 35.4367C131.444 35.4367 131.466 35.3807 131.466 35.2686C131.461 35.1038 131.471 34.9388 131.494 34.7756C131.587 34.1731 131.813 33.5988 132.155 33.0948C132.668 32.3292 133.382 31.7188 134.217 31.33C135.251 30.8588 136.382 30.6363 137.517 30.6801L137.366 30.8089C137.394 30.5863 137.442 30.3668 137.512 30.1534C137.918 28.9971 138.763 28.0472 139.865 27.509C140.759 27.0849 141.738 26.8703 142.728 26.8815C143.384 26.8834 144.039 26.951 144.683 27.0832C144.92 27.1086 145.154 27.1632 145.378 27.2456Z" fill="#455A64"/>
<path d="M122.228 151.585L163.911 150.157L167.777 207.08L131.304 207.59L122.228 151.585Z" fill="#E0E0E0"/>
<path d="M154.667 109.308C155.227 108.596 186.316 129.685 187.723 132.206C189.129 134.727 196.62 207.595 196.62 207.595H156.006C156.006 207.595 152.275 147.58 152.471 142.044C152.667 136.509 154.667 109.308 154.667 109.308Z" fill="#FF8080"/>
<path d="M60.9233 207.914C60.9233 207.914 56.3403 198.485 56.8501 193.908C57.36 189.33 60.9233 180.147 60.9233 180.147L70.0948 163.844C70.0948 163.844 71.9325 150.257 72.9466 147.708C73.9606 145.159 79.3336 127.925 85.687 123.874C92.0404 119.824 111.358 117.045 111.358 117.045L119.914 110.691C119.914 110.691 128.424 135.819 129.696 142.699C130.968 149.579 138.1 207.914 138.1 207.914H60.9233Z" fill="#FF8080"/>
<path d="M132.441 164.085C132.404 164.048 132.372 164.007 132.346 163.961L132.083 163.597L131.108 162.163L127.567 156.874C126.077 154.633 124.312 151.961 122.345 149.03L119.275 144.38C118.222 142.772 117.079 141.019 116.692 138.957C116.488 137.718 116.558 136.45 116.899 135.242C117.214 134.096 117.607 132.973 118.076 131.881L118.25 132.066L112.647 134.015L112.49 134.066V133.898C112.115 129.018 111.801 124.905 111.577 121.986C111.476 120.552 111.398 119.415 111.342 118.625C111.342 118.249 111.302 117.958 111.291 117.734C111.283 117.631 111.283 117.528 111.291 117.426C111.315 117.525 111.33 117.626 111.336 117.728C111.336 117.952 111.392 118.244 111.431 118.619C111.504 119.42 111.605 120.558 111.739 121.981C111.986 124.894 112.339 129.006 112.753 133.886L112.58 133.774L118.182 131.802L118.474 131.701L118.362 131.993C117.898 133.072 117.511 134.182 117.202 135.315C116.872 136.483 116.803 137.709 117 138.906C117.37 140.901 118.491 142.615 119.533 144.223C120.575 145.831 121.617 147.394 122.592 148.885L127.763 156.784L131.225 162.129L132.155 163.592L132.391 163.973C132.419 164.034 132.447 164.079 132.441 164.085Z" fill="#263238"/>
<path d="M103.139 206.687C103.111 206.633 103.092 206.574 103.083 206.514L102.949 205.998C102.837 205.522 102.68 204.878 102.473 204.004C102.075 202.256 101.503 199.751 100.792 196.664C99.4247 190.44 97.5422 181.873 95.458 172.41L90.1691 148.14C89.4856 145.047 88.9365 142.537 88.5499 140.789C88.3669 139.934 88.2213 139.267 88.1129 138.789C88.0681 138.57 88.0345 138.397 88.0065 138.268C87.9975 138.206 87.9975 138.144 88.0065 138.083C88.0065 138.083 88.0065 138.144 88.0569 138.256C88.1073 138.369 88.1409 138.559 88.1914 138.772C88.309 139.248 88.4771 139.892 88.6844 140.761C89.099 142.492 89.6873 144.996 90.3652 148.095C91.7771 154.291 93.6708 162.869 95.7325 172.349C97.7943 181.828 99.6544 190.395 100.982 196.619C101.643 199.718 102.187 202.222 102.562 203.981C102.741 204.838 102.887 205.505 102.988 205.981C103.027 206.2 103.061 206.374 103.089 206.508C103.117 206.642 103.139 206.687 103.139 206.687Z" fill="#263238"/>
<g opacity="0.3">
<path opacity="0.3" d="M99.4526 207.079C103.573 204.637 108.201 203.18 112.977 202.821C116.647 202.552 120.435 202.928 123.936 201.79C127.858 200.519 130.945 197.516 133.875 194.602C134.738 193.868 135.416 192.941 135.853 191.896C136.206 190.826 135.909 189.453 134.906 188.938C134.133 188.54 133.197 188.747 132.357 188.983C119.996 192.4 108.538 198.492 98.7915 206.827" fill="black"/>
</g>
<path d="M88.5948 186.064C88.5948 186.064 88.3707 185.75 87.9841 185.173C87.433 184.368 86.8284 183.6 86.1744 182.876C84.031 180.458 81.3416 178.587 78.3296 177.418C75.3175 176.248 72.0699 175.815 68.8566 176.153C67.885 176.248 66.921 176.409 65.9713 176.635C65.6247 176.735 65.2731 176.817 64.918 176.881C64.9995 176.832 65.0884 176.796 65.1813 176.775C65.355 176.713 65.6071 176.618 65.9433 176.528C66.8896 176.261 67.8566 176.074 68.8342 175.968C72.0829 175.57 75.3797 175.979 78.432 177.161C81.4842 178.343 84.1976 180.26 86.3313 182.741C86.9773 183.485 87.5619 184.279 88.0794 185.117C88.2698 185.414 88.3875 185.677 88.4771 185.812C88.5668 185.946 88.606 186.064 88.5948 186.064Z" fill="#263238"/>
<path d="M93.0545 183.851C93.0545 183.851 92.9985 183.767 92.9201 183.593L92.6007 182.831C92.4662 182.501 92.3038 182.097 92.074 181.643C91.8443 181.19 91.6258 180.657 91.3009 180.103L90.8191 179.223C90.651 178.921 90.4493 178.618 90.2588 178.299C89.8778 177.649 89.396 177.004 88.9142 176.315C86.7281 173.37 84.034 170.839 80.9584 168.841C80.2412 168.393 79.5689 167.956 78.9022 167.62C78.5717 167.441 78.2579 167.256 77.9441 167.105L77.0365 166.679C76.4763 166.393 75.916 166.197 75.451 166.006C75.0523 165.833 74.6446 165.682 74.2296 165.553L73.4508 165.278C73.3577 165.252 73.2689 165.213 73.1875 165.16C73.2829 165.171 73.3768 165.191 73.4676 165.222L74.2632 165.441C74.6846 165.555 75.0997 165.692 75.507 165.85C75.9832 166.034 76.5379 166.214 77.1206 166.494L78.0394 166.903C78.3588 167.049 78.6781 167.233 79.0143 167.402C79.6978 167.738 80.3757 168.175 81.1041 168.612C82.6544 169.617 84.1146 170.755 85.4685 172.013C86.8066 173.285 88.0307 174.672 89.1271 176.158C89.6145 176.859 90.0851 177.514 90.4661 178.17C90.6566 178.495 90.8583 178.803 91.0264 179.111L91.497 180.008C91.8107 180.568 92.0236 181.128 92.2309 181.576C92.4156 181.972 92.5783 182.378 92.7184 182.792L92.9873 183.571C93.0192 183.662 93.0417 183.755 93.0545 183.851Z" fill="#263238"/>
<path d="M177.767 156.818C177.774 156.858 177.774 156.9 177.767 156.941L177.688 157.316C177.61 157.664 177.503 158.134 177.363 158.734C177.077 159.961 176.657 161.742 176.181 163.95C174.89 169.687 174.152 175.535 173.979 181.413C173.894 184.646 174.125 187.879 174.668 191.067C175.103 193.672 175.799 196.227 176.747 198.692C177.387 200.352 178.153 201.961 179.038 203.505C179.347 204.065 179.627 204.463 179.789 204.748L179.985 205.073C180.008 205.111 180.027 205.15 180.041 205.191C180.041 205.191 180.008 205.163 179.957 205.09L179.739 204.782C179.559 204.502 179.263 204.11 178.943 203.561C178.014 202.032 177.215 200.428 176.556 198.765C175.569 196.294 174.843 193.727 174.388 191.106C173.82 187.906 173.573 184.657 173.649 181.408C173.819 175.511 174.587 169.647 175.94 163.905C176.439 161.698 176.893 159.927 177.212 158.706C177.374 158.112 177.503 157.647 177.593 157.3C177.638 157.154 177.671 157.036 177.699 156.935L177.767 156.818Z" fill="#263238"/>
<path d="M173.839 180.562C173.826 180.421 173.826 180.278 173.839 180.136C173.869 179.834 173.903 179.43 173.94 178.926C173.996 178.405 174.041 177.761 174.097 177.016C174.153 176.271 174.215 175.419 174.271 174.478C174.506 170.718 174.668 165.513 174.629 159.765C174.59 154.017 174.36 148.812 174.119 145.052C174.007 143.17 173.89 141.652 173.806 140.598C173.772 140.094 173.744 139.696 173.722 139.388C173.704 139.247 173.704 139.104 173.722 138.962C173.754 139.101 173.777 139.241 173.789 139.383C173.822 139.685 173.873 140.089 173.934 140.587C174.047 141.635 174.198 143.159 174.338 145.036C174.629 148.795 174.898 154 174.932 159.765C174.965 165.53 174.775 170.729 174.484 174.489C174.422 175.43 174.349 176.282 174.271 177.027C174.192 177.772 174.136 178.416 174.069 178.937C174.002 179.458 173.951 179.839 173.912 180.142C173.897 180.283 173.872 180.424 173.839 180.562Z" fill="#263238"/>
<path d="M162.202 127.953C162.186 128.115 162.146 128.273 162.085 128.424C161.91 128.857 161.633 129.241 161.278 129.544C160.718 130.033 160.037 130.362 159.306 130.497C158.346 130.662 157.369 130.706 156.398 130.626L156.426 130.424L160.185 131.354H160.292V131.455C159.928 135.141 159.39 139.556 158.611 144.268C157.563 150.739 156.269 156.538 155.249 160.706C154.723 162.785 154.269 164.466 153.938 165.62C153.776 166.18 153.647 166.617 153.546 166.942C153.505 167.098 153.455 167.251 153.395 167.401C153.412 167.242 153.444 167.084 153.49 166.931C153.574 166.595 153.686 166.152 153.832 165.586C154.123 164.426 154.549 162.74 155.053 160.656C156.039 156.482 157.294 150.683 158.348 144.223C159.082 139.562 159.642 135.136 160.034 131.46L160.129 131.589L156.376 130.62L156.409 130.418C157.363 130.508 158.325 130.482 159.272 130.34C159.982 130.22 160.648 129.917 161.205 129.46C161.558 129.176 161.84 128.813 162.029 128.401C162.158 128.116 162.186 127.953 162.202 127.953Z" fill="#263238"/>
<g opacity="0.3">
<path opacity="0.3" d="M89.5081 145.064C88.9408 144.248 88.2399 143.534 87.4351 142.952C87.1598 142.712 86.8137 142.568 86.4494 142.542C86.085 142.516 85.7221 142.61 85.4157 142.809C85.1092 143.007 84.8759 143.301 84.751 143.644C84.6261 143.987 84.6164 144.362 84.7234 144.711C84.8685 145.334 85.1166 145.929 85.4573 146.47C89.0385 153.056 91.4104 160.231 92.4607 167.654C92.9089 170.825 93.1106 174.041 93.7941 177.178C94.4776 180.316 95.1836 182.686 97.363 185.022L98.2594 184.641C98.1588 183.799 98.0129 182.963 97.8224 182.137C94.9034 169.962 92.3486 157.816 89.5081 145.064Z" fill="black"/>
</g>
<g opacity="0.3">
<path opacity="0.3" d="M88.97 186.187C88.5834 183.274 86.729 180.702 84.3814 178.904C82.0339 177.105 79.2326 176.102 76.4201 175.228C74.9182 174.705 73.3377 174.444 71.7474 174.455C70.1619 174.545 67.1925 175.223 66.2625 176.511C76.7562 174.035 84.3814 178.904 88.5722 186.406" fill="black"/>
</g>
<g opacity="0.3">
<path opacity="0.3" d="M174.209 148.56C173.413 157.188 171.094 165.608 170.063 174.208C169.032 182.809 169.43 191.958 173.649 199.51C175.072 202.048 177.083 204.48 179.873 205.326C176.551 201.337 174.915 196.171 174.315 191.011C173.716 185.851 174.063 180.646 174.315 175.458C174.708 166.494 174.723 157.529 174.36 148.565" fill="black"/>
</g>
<path d="M90.8078 151.104C90.5877 151.223 90.357 151.323 90.1187 151.4C89.4784 151.641 88.8257 151.846 88.1634 152.017C87.1821 152.264 86.1867 152.451 85.1827 152.577C83.9491 152.734 82.7061 152.805 81.4626 152.79C80.2197 152.756 78.9805 152.638 77.7536 152.437C76.7531 152.269 75.7649 152.035 74.7954 151.737C74.1405 151.543 73.4971 151.313 72.8681 151.048C72.6332 150.961 72.4063 150.854 72.1902 150.728C72.4368 150.77 72.6776 150.842 72.9073 150.941C73.3611 151.104 74.0279 151.316 74.8514 151.541C75.822 151.803 76.8057 152.014 77.7984 152.174C80.2311 152.553 82.7038 152.6 85.1491 152.314C86.146 152.195 87.1354 152.021 88.1129 151.793C88.9477 151.597 89.62 151.412 90.0795 151.266C90.3148 151.183 90.5594 151.128 90.8078 151.104Z" fill="white"/>
<path d="M119.398 145.081C118.707 145.662 117.956 146.167 117.157 146.588C113.444 148.6 109.12 149.175 105.01 148.201C103.101 147.734 101.29 146.927 99.6655 145.82C97.8649 144.6 96.3054 143.058 95.0657 141.271C94.4165 140.323 93.8628 139.313 93.4129 138.256C92.9319 137.172 92.6056 136.025 92.4437 134.85C92.265 133.663 92.3628 132.452 92.7294 131.309C92.9101 130.747 93.2015 130.227 93.5864 129.78C93.9713 129.332 94.4419 128.967 94.9705 128.704C96.0151 128.239 97.1917 128.163 98.2872 128.491C99.3396 128.781 100.271 129.401 100.943 130.261C101.55 131.084 101.936 132.048 102.063 133.063C102.188 134.021 102.117 134.995 101.856 135.926C101.346 137.579 100.353 139.043 99.0044 140.128C97.9114 141.024 96.6794 141.735 95.357 142.234C94.3642 142.607 93.3456 142.906 92.3092 143.131C91.4576 143.316 90.7853 143.428 90.3371 143.495L89.816 143.573C89.7583 143.58 89.7001 143.58 89.6423 143.573L89.816 143.529L90.3259 143.428C90.7741 143.338 91.4464 143.209 92.2812 143.008C93.3072 142.767 94.3146 142.452 95.2954 142.066C96.5943 141.565 97.8019 140.853 98.8699 139.96C100.175 138.892 101.132 137.461 101.621 135.847C101.868 134.95 101.931 134.013 101.806 133.091C101.684 132.114 101.307 131.186 100.713 130.402C100.078 129.582 99.1926 128.992 98.192 128.721C97.163 128.413 96.0576 128.484 95.0769 128.922C94.5831 129.169 94.1438 129.513 93.7849 129.932C93.426 130.352 93.1547 130.839 92.9871 131.365C92.6344 132.464 92.5404 133.63 92.7126 134.772C92.8713 135.931 93.192 137.063 93.665 138.133C94.953 141.162 97.0943 143.751 99.828 145.585C101.424 146.682 103.204 147.484 105.083 147.955C106.723 148.354 108.413 148.507 110.098 148.408C112.548 148.266 114.94 147.608 117.118 146.476C117.462 146.308 117.797 146.12 118.121 145.915C118.406 145.747 118.647 145.596 118.832 145.461L119.264 145.17L119.398 145.081Z" fill="white"/>
<path d="M123.55 122.95C123.55 123 122.838 123.056 121.701 123.269C120.222 123.546 118.78 123.991 117.403 124.597C116.028 125.207 114.726 125.97 113.521 126.872C112.596 127.566 112.075 128.059 112.036 127.992C112.132 127.852 112.245 127.724 112.372 127.611C112.694 127.279 113.036 126.969 113.398 126.681C114.581 125.716 115.889 124.916 117.286 124.3C118.684 123.687 120.157 123.261 121.667 123.034C122.124 122.966 122.584 122.923 123.045 122.905C123.215 122.894 123.385 122.91 123.55 122.95Z" fill="white"/>
<path d="M132.749 166.6L132.553 166.522L131.993 166.275C131.266 165.972 130.517 165.727 129.752 165.541C126.954 164.88 124.029 164.987 121.286 165.849C119.394 166.424 117.623 167.339 116.059 168.55C114.26 169.932 112.713 171.616 111.487 173.525C110.124 175.628 109.128 177.946 108.54 180.383C108.2 181.651 108.214 182.988 108.579 184.248C108.811 184.872 109.192 185.431 109.687 185.875C110.183 186.319 110.78 186.636 111.426 186.798C112.728 187.158 114.108 187.127 115.392 186.708C116.644 186.307 117.777 185.6 118.687 184.652C119.569 183.746 120.135 182.578 120.3 181.324C120.366 180.72 120.324 180.109 120.177 179.52C120.019 178.945 119.779 178.396 119.465 177.889C118.829 176.924 118.004 176.096 117.039 175.458C116.129 174.847 115.137 174.368 114.092 174.035C113.116 173.72 112.113 173.497 111.095 173.368C110.154 173.261 109.206 173.231 108.26 173.278C105.39 173.414 102.601 174.274 100.153 175.777C99.4877 176.186 98.8529 176.643 98.2537 177.144L97.7887 177.536L97.6262 177.66C97.6696 177.608 97.7164 177.559 97.7663 177.514L98.2145 177.099C98.8006 176.577 99.4283 176.103 100.091 175.682C102.544 174.126 105.355 173.227 108.254 173.071C109.211 173.015 110.171 173.04 111.123 173.144C112.156 173.268 113.174 173.489 114.165 173.805C115.234 174.138 116.249 174.623 117.179 175.245C118.18 175.898 119.036 176.748 119.695 177.744C120.026 178.274 120.277 178.85 120.44 179.453C120.599 180.074 120.647 180.719 120.58 181.357C120.41 182.671 119.82 183.895 118.9 184.848C117.958 185.834 116.785 186.569 115.487 186.988C114.146 187.424 112.706 187.455 111.347 187.078C110.658 186.901 110.022 186.56 109.493 186.084C108.964 185.608 108.558 185.011 108.31 184.344C107.926 183.032 107.911 181.641 108.266 180.321C108.864 177.853 109.88 175.505 111.269 173.379C112.515 171.442 114.088 169.735 115.919 168.337C117.508 167.116 119.308 166.198 121.23 165.631C124.007 164.772 126.968 164.696 129.785 165.412C130.555 165.607 131.305 165.871 132.027 166.202L132.587 166.477L132.749 166.6Z" fill="white"/>
<path d="M81.6419 168.813C81.6419 168.869 81.0088 168.948 80.0451 169.284C79.483 169.482 78.9393 169.73 78.4203 170.023C77.1459 170.741 76.0398 171.723 75.1764 172.903C74.8285 173.387 74.5212 173.898 74.2576 174.433C73.8094 175.351 73.6581 175.973 73.6021 175.957C73.6019 175.804 73.6265 175.653 73.6749 175.508C73.7697 175.109 73.901 174.719 74.0671 174.343C74.3116 173.783 74.61 173.248 74.9579 172.746C75.3948 172.134 75.8963 171.57 76.4538 171.065C77.0192 170.584 77.6354 170.165 78.2915 169.816C78.8253 169.524 79.3887 169.289 79.9723 169.116C80.3647 168.993 80.7681 168.908 81.1768 168.864C81.3282 168.822 81.4852 168.805 81.6419 168.813Z" fill="white"/>
<path d="M100.528 197.538C100.528 197.538 100.478 197.499 100.388 197.409C100.299 197.32 100.164 197.168 100.002 197C99.6656 196.642 99.1669 196.109 98.5058 195.454C96.6722 193.559 94.6007 191.909 92.3429 190.546C90.7828 189.619 89.0926 188.932 87.3285 188.507C85.3061 188.033 83.2074 187.986 81.1656 188.367C78.9012 188.784 76.8331 189.924 75.2716 191.616C74.4635 192.506 73.9422 193.619 73.7757 194.81C73.6895 195.415 73.7317 196.032 73.8997 196.619C74.0677 197.207 74.3576 197.753 74.7506 198.222C75.1564 198.673 75.6743 199.009 76.2518 199.196C76.8293 199.383 77.446 199.414 78.0393 199.286C78.6121 199.144 79.1232 198.819 79.496 198.362C79.8647 197.906 80.1183 197.368 80.2356 196.793C80.4611 195.656 80.2618 194.476 79.6753 193.476C79.1216 192.509 78.336 191.695 77.3894 191.106C75.5943 190.049 73.5038 189.605 71.4338 189.84C69.6256 190.009 67.8443 190.395 66.1281 190.989C63.6244 191.818 61.2471 192.989 59.0631 194.468C58.29 194.995 57.7185 195.437 57.3263 195.74L56.8893 196.087C56.7884 196.165 56.738 196.205 56.7324 196.199C57.4311 195.535 58.1804 194.926 58.9735 194.378C61.1572 192.848 63.5498 191.641 66.0777 190.793C67.8068 190.181 69.6032 189.781 71.4282 189.599C73.5522 189.349 75.6997 189.798 77.5463 190.877C78.5327 191.487 79.3527 192.332 79.933 193.336C80.5572 194.396 80.7686 195.649 80.5269 196.855C80.4047 197.471 80.1335 198.048 79.7369 198.535C79.3232 199.041 78.7572 199.398 78.1234 199.555C77.4792 199.697 76.8089 199.666 76.1809 199.464C75.5528 199.262 74.9897 198.897 74.5489 198.407C74.13 197.906 73.8207 197.324 73.6412 196.696C73.4617 196.069 73.4159 195.411 73.5068 194.765C73.6779 193.511 74.2249 192.339 75.0755 191.403C76.6771 189.667 78.8016 188.5 81.1264 188.081C83.2106 187.698 85.3518 187.755 87.4126 188.249C89.1886 188.692 90.8883 189.398 92.455 190.344C94.7225 191.731 96.7951 193.413 98.6179 195.347C99.2678 196.025 99.7384 196.569 100.075 196.939L100.439 197.364L100.528 197.538Z" fill="white"/>
<path d="M173.974 181.716C173.86 181.815 173.736 181.901 173.604 181.974C173.481 182.052 173.329 182.153 173.144 182.26L172.483 182.59C172.231 182.713 171.923 182.814 171.62 182.943C171.318 183.072 170.943 183.15 170.562 183.257C169.683 183.457 168.785 183.563 167.884 183.571C165.515 183.574 163.203 182.848 161.261 181.492C160.078 180.724 159.147 179.625 158.583 178.332C158.324 177.608 158.324 176.816 158.583 176.091C158.723 175.721 158.948 175.39 159.24 175.123C159.532 174.856 159.883 174.662 160.264 174.556C161.008 174.384 161.783 174.39 162.524 174.575C163.265 174.76 163.952 175.118 164.528 175.62C165.089 176.073 165.539 176.648 165.844 177.301C166.134 177.943 166.224 178.658 166.102 179.352C165.974 180.002 165.693 180.613 165.284 181.133C164.904 181.618 164.464 182.051 163.973 182.422C163.102 183.072 162.163 183.624 161.172 184.069C159.735 184.72 158.212 185.159 156.65 185.375C156.09 185.448 155.664 185.481 155.373 185.492C155.224 185.507 155.074 185.507 154.925 185.492C155.07 185.461 155.218 185.442 155.367 185.436C155.659 185.403 156.084 185.352 156.628 185.263C158.177 185.009 159.685 184.545 161.11 183.884C162.086 183.435 163.01 182.881 163.866 182.232C164.871 181.534 165.588 180.494 165.883 179.307C165.967 178.646 165.873 177.975 165.611 177.362C165.349 176.75 164.929 176.218 164.393 175.822C163.852 175.352 163.208 175.016 162.513 174.842C161.818 174.668 161.091 174.66 160.393 174.819C160.052 174.912 159.738 175.083 159.476 175.319C159.214 175.556 159.012 175.851 158.886 176.181C158.648 176.838 158.648 177.557 158.886 178.214C159.351 179.531 160.432 180.484 161.452 181.251C163.343 182.588 165.596 183.317 167.912 183.341C168.798 183.345 169.682 183.257 170.55 183.078C170.931 182.977 171.284 182.893 171.604 182.786C171.923 182.68 172.214 182.579 172.466 182.467L173.133 182.159C173.324 182.064 173.475 181.968 173.604 181.901C173.723 181.832 173.847 181.77 173.974 181.716Z" fill="white"/>
<path d="M157.799 143.153C156.812 143.416 155.844 143.745 154.902 144.139C154.003 144.616 153.138 145.155 152.314 145.753C152.96 144.925 153.809 144.279 154.779 143.876C155.709 143.385 156.747 143.136 157.799 143.153Z" fill="white"/>
<path d="M129.606 143.282C129.529 143.735 129.379 144.172 129.163 144.577C128.691 145.579 128.057 146.497 127.287 147.294C126.516 148.091 125.621 148.757 124.637 149.266C124.237 149.493 123.804 149.656 123.354 149.748C124.721 149.053 125.976 148.158 127.079 147.092C128.108 145.957 128.96 144.672 129.606 143.282Z" fill="white"/>
<path d="M166.169 116.849C166.169 116.849 165.771 116.922 165.049 117.101C164.049 117.357 163.079 117.713 162.152 118.166C161.511 118.47 160.894 118.82 160.303 119.213C159.627 119.654 159.036 120.214 158.561 120.866C158.049 121.586 157.789 122.454 157.821 123.337C157.846 123.795 157.979 124.24 158.208 124.637C158.459 125.032 158.819 125.348 159.244 125.544C159.664 125.75 160.138 125.823 160.6 125.752C161.049 125.683 161.452 125.439 161.721 125.074C161.953 124.712 162.083 124.294 162.098 123.864C162.113 123.434 162.012 123.008 161.805 122.631C161.608 122.291 161.341 121.995 161.023 121.765C160.704 121.534 160.341 121.373 159.956 121.292C159.275 121.132 158.565 121.142 157.888 121.32C156.905 121.617 155.989 122.104 155.194 122.754C154.633 123.197 154.308 123.466 154.292 123.449C154.275 123.432 154.353 123.365 154.493 123.23C154.633 123.096 154.841 122.9 155.121 122.67C155.905 121.97 156.83 121.445 157.832 121.129C158.542 120.926 159.291 120.903 160.012 121.062C160.435 121.146 160.835 121.318 161.185 121.569C161.536 121.819 161.829 122.141 162.046 122.513C162.278 122.935 162.392 123.412 162.375 123.894C162.359 124.375 162.212 124.843 161.95 125.247C161.645 125.672 161.183 125.958 160.667 126.043C160.146 126.124 159.612 126.044 159.138 125.813C158.66 125.594 158.257 125.239 157.978 124.794C157.724 124.356 157.578 123.865 157.552 123.359C157.52 122.413 157.804 121.482 158.359 120.715C158.859 120.047 159.478 119.477 160.186 119.034C160.792 118.642 161.427 118.296 162.085 117.998C163.03 117.558 164.023 117.227 165.043 117.012C165.402 116.939 165.687 116.905 165.878 116.883C165.973 116.858 166.071 116.847 166.169 116.849Z" fill="white"/>
<path d="M173.48 151.193C173.391 151.325 173.293 151.452 173.189 151.574C173.088 151.691 172.943 151.815 172.78 151.977C172.575 152.141 172.358 152.289 172.13 152.42C171.39 152.823 170.572 153.066 169.731 153.131C168.89 153.197 168.045 153.084 167.25 152.801C166.141 152.423 165.155 151.751 164.399 150.857C163.535 149.835 162.904 148.639 162.55 147.349C162.145 145.932 161.995 144.454 162.107 142.985C162.177 141.387 162.734 139.848 163.704 138.576C164.214 137.949 164.872 137.458 165.617 137.146C166.363 136.835 167.174 136.712 167.979 136.788C168.752 136.88 169.473 137.229 170.024 137.78C170.563 138.308 170.874 139.026 170.892 139.78C170.874 140.498 170.582 141.182 170.074 141.691C169.616 142.166 169.054 142.528 168.432 142.749C167.325 143.134 166.135 143.211 164.987 142.974C164.049 142.786 163.144 142.46 162.303 142.004C161.671 141.67 161.061 141.296 160.477 140.884C159.995 140.542 159.631 140.268 159.39 140.077C159.261 139.986 159.139 139.885 159.026 139.774C159.166 139.847 159.299 139.934 159.423 140.032L160.544 140.789C161.135 141.182 161.749 141.541 162.382 141.864C163.214 142.296 164.105 142.603 165.026 142.778C166.138 142.994 167.287 142.908 168.354 142.531C168.937 142.319 169.463 141.974 169.889 141.523C170.348 141.059 170.612 140.438 170.629 139.786C170.607 139.102 170.322 138.454 169.833 137.976C169.322 137.474 168.657 137.156 167.945 137.074C167.191 137.007 166.432 137.125 165.734 137.418C165.036 137.711 164.42 138.17 163.939 138.755C163.005 139.98 162.467 141.462 162.398 143.002C162.283 144.438 162.423 145.883 162.813 147.271C163.156 148.525 163.761 149.692 164.589 150.694C165.311 151.565 166.256 152.224 167.323 152.599C168.093 152.882 168.912 153.004 169.731 152.955C170.549 152.907 171.349 152.69 172.08 152.319C172.606 152.023 173.079 151.643 173.48 151.193Z" fill="white"/>
<path d="M189.207 147.159C189.207 147.221 188.249 146.879 186.664 146.761C184.593 146.603 182.518 146.996 180.648 147.899C178.779 148.802 177.181 150.184 176.019 151.905C175.553 152.626 175.13 153.375 174.752 154.146C174.791 153.914 174.863 153.69 174.965 153.479C175.206 152.893 175.5 152.33 175.845 151.798C176.984 150.005 178.601 148.566 180.512 147.64C182.424 146.715 184.556 146.341 186.669 146.56C187.303 146.621 187.93 146.743 188.541 146.924C188.771 146.977 188.995 147.056 189.207 147.159Z" fill="white"/>
<g opacity="0.3">
<path opacity="0.3" d="M154.14 115.521C160.46 118.603 168.147 118.782 173.778 122.961C177.052 125.392 179.309 128.949 180.113 132.946C180.917 136.944 180.211 141.097 178.131 144.604C177.722 141.041 177.01 136.996 173.996 135.08C172.674 134.245 171.094 133.959 169.626 133.399C167.973 132.794 166.449 131.864 164.774 131.332C162.533 130.615 160.057 130.643 157.804 129.897C155.552 129.152 153.362 127.231 153.53 124.855L154.14 115.521Z" fill="black"/>
</g>
<path d="M178.063 143.629L177.167 132.362C177.167 132.362 171.055 131.18 168.886 129.802C166.718 128.424 162.751 125.555 162.751 125.555C162.751 125.555 161.793 128.995 159.821 129.191L158.045 129.393L157.961 122.457C157.961 122.457 157.625 125.572 155.065 126.054C154.504 126.166 154.476 126.054 154.476 126.054L152.745 116.972C152.745 116.972 150.694 119.628 146.946 117.857C146.946 117.857 153.02 107.268 154.202 106.876C155.384 106.484 161.771 106.316 161.771 106.316C161.771 106.316 170.64 105.755 171.626 106.136C172.612 106.517 173.99 108.086 173.99 108.086C173.99 108.086 184.439 118.143 187.79 121.493C190.432 124.281 192.212 127.774 192.916 131.55C193.118 133.32 194.597 140.71 194.597 140.71" fill="#B47266"/>
<path d="M194.631 140.738L194.58 140.553L194.463 139.993C194.362 139.5 194.211 138.789 194.02 137.859C193.83 136.929 193.611 135.774 193.348 134.424C193.224 133.752 193.09 133.023 192.961 132.245C192.894 131.858 192.86 131.449 192.782 131.046C192.703 130.642 192.591 130.228 192.468 129.808C191.909 127.955 191.104 126.186 190.076 124.547C189.496 123.621 188.83 122.753 188.087 121.953C187.308 121.135 186.434 120.333 185.571 119.482L173.923 108.187C173.573 107.791 173.198 107.417 172.803 107.066C172.429 106.704 171.982 106.425 171.492 106.248C170.959 106.173 170.421 106.142 169.884 106.153C169.324 106.153 168.763 106.153 168.203 106.153C165.962 106.204 163.682 106.344 161.334 106.456C160.163 106.489 158.981 106.534 157.793 106.601C157.199 106.635 156.6 106.674 156 106.725C155.411 106.759 154.826 106.847 154.252 106.988C154.022 107.141 153.818 107.33 153.647 107.548C153.457 107.783 153.266 108.019 153.087 108.265C152.728 108.758 152.381 109.263 152.039 109.778C151.361 110.798 150.7 111.851 150.045 112.916C149.031 114.596 148.045 116.232 147.098 117.874L147.031 117.672C147.962 118.141 149.007 118.335 150.045 118.232C151.053 118.097 151.98 117.604 152.656 116.843L152.857 116.613L152.908 116.905C153.502 120.014 154.079 123.068 154.633 125.987C154.633 125.902 154.605 125.925 154.594 125.908H154.661C154.715 125.914 154.77 125.914 154.824 125.908C154.935 125.896 155.046 125.875 155.154 125.846L155.479 125.757L155.787 125.628C156.19 125.436 156.545 125.159 156.83 124.816C157.382 124.114 157.735 123.276 157.849 122.39H158.118C158.118 124.788 158.137 127.103 158.174 129.337L158.034 129.214L159.76 129.023C160.294 128.954 160.785 128.691 161.138 128.284C161.836 127.47 162.349 126.514 162.64 125.482L162.684 125.331L162.819 125.421L166.595 128.032L168.371 129.264C168.921 129.672 169.522 130.007 170.158 130.261C171.351 130.734 172.573 131.129 173.817 131.444C174.999 131.752 176.125 132.004 177.178 132.228H177.24V132.29C177.503 135.853 177.716 138.671 177.862 140.604C177.929 141.562 177.98 142.285 178.019 142.806C178.019 143.047 178.019 143.237 178.052 143.366C178.056 143.429 178.056 143.493 178.052 143.556C178.052 143.556 178.052 143.495 178.052 143.366C178.052 143.237 178.019 143.047 177.996 142.806C177.952 142.296 177.884 141.562 177.8 140.604C177.638 138.671 177.403 135.858 177.1 132.301L177.167 132.368C176.097 132.161 174.971 131.909 173.806 131.6C172.551 131.291 171.317 130.9 170.113 130.429C169.465 130.174 168.853 129.835 168.293 129.421L166.505 128.194C165.29 127.359 164.023 126.513 162.718 125.594L162.897 125.533C162.6 126.605 162.072 127.599 161.351 128.446C160.958 128.899 160.411 129.19 159.816 129.264L158.096 129.46H157.956V129.32C157.933 127.079 157.909 124.761 157.883 122.367H158.152C158.031 123.306 157.659 124.194 157.076 124.939C156.77 125.312 156.388 125.615 155.956 125.83L155.619 125.97L155.266 126.065C155.147 126.096 155.025 126.118 154.902 126.132H154.706H154.594H154.527C154.508 126.127 154.491 126.118 154.476 126.104C154.476 126.104 154.437 126.104 154.409 125.992L152.678 116.91L152.936 116.972C152.214 117.795 151.219 118.328 150.134 118.473C149.046 118.592 147.946 118.398 146.963 117.913L146.823 117.846L146.902 117.711C147.854 116.06 148.838 114.404 149.854 112.742C150.51 111.677 151.171 110.624 151.854 109.593C152.196 109.078 152.544 108.568 152.913 108.069C153.093 107.823 153.283 107.582 153.474 107.341C153.67 107.077 153.916 106.852 154.196 106.68C154.797 106.53 155.41 106.438 156.028 106.405C156.628 106.349 157.233 106.316 157.827 106.276C159.02 106.215 160.208 106.17 161.379 106.136C163.71 106.03 166.007 105.89 168.248 105.845C168.808 105.845 169.368 105.845 169.929 105.845C170.491 105.836 171.053 105.872 171.609 105.951C172.14 106.138 172.624 106.438 173.027 106.831C173.434 107.179 173.817 107.553 174.175 107.952L185.79 119.269C186.658 120.126 187.521 120.95 188.305 121.751C189.053 122.566 189.723 123.45 190.305 124.39C191.337 126.047 192.14 127.835 192.692 129.707C192.81 130.132 192.922 130.547 192.995 130.962C193.068 131.376 193.107 131.78 193.174 132.166C193.292 132.945 193.415 133.668 193.538 134.346C193.785 135.696 193.998 136.85 194.171 137.791C194.345 138.733 194.479 139.433 194.575 139.932C194.614 140.167 194.648 140.346 194.67 140.492C194.692 140.637 194.631 140.738 194.631 140.738Z" fill="#89544C"/>
<path d="M163.295 106.876C163.295 106.926 162.365 107.094 160.919 107.593C159.045 108.267 157.229 109.093 155.49 110.064C154.993 110.315 154.541 110.646 154.151 111.044C153.803 111.424 153.524 111.862 153.328 112.338C152.967 113.147 152.791 114.025 152.812 114.91C152.812 115.672 152.868 116.294 152.874 116.72C152.894 116.944 152.885 117.17 152.846 117.392C152.794 117.175 152.764 116.954 152.756 116.731C152.717 116.3 152.633 115.689 152.605 114.916C152.553 113.996 152.716 113.078 153.081 112.232C153.281 111.722 153.574 111.252 153.944 110.848C154.352 110.426 154.827 110.074 155.35 109.806C157.102 108.822 158.947 108.015 160.858 107.397C161.439 107.217 162.03 107.069 162.628 106.954C162.846 106.899 163.07 106.872 163.295 106.876Z" fill="#89544C"/>
<path d="M169.951 108.859C169.671 108.97 169.382 109.058 169.088 109.123C168.528 109.291 167.727 109.515 166.763 109.885C165.634 110.319 164.547 110.853 163.514 111.481C162.92 111.823 162.292 112.187 161.625 112.535C160.959 112.882 160.236 113.185 159.592 113.594C159.272 113.789 158.991 114.041 158.762 114.339C158.556 114.637 158.402 114.969 158.309 115.319C158.133 116.006 158.017 116.707 157.961 117.415C157.88 118.622 157.88 119.833 157.961 121.039C158.012 122.076 158.062 122.916 158.073 123.499C158.1 123.799 158.1 124.101 158.073 124.401C158.016 124.105 157.982 123.806 157.972 123.505C157.922 122.872 157.849 122.048 157.765 121.051C157.661 119.834 157.646 118.611 157.72 117.392C157.773 116.667 157.887 115.947 158.062 115.241C158.163 114.858 158.33 114.496 158.555 114.171C158.801 113.841 159.107 113.562 159.457 113.347C160.152 112.916 160.869 112.635 161.525 112.283C162.18 111.93 162.808 111.582 163.407 111.246C164.461 110.626 165.569 110.105 166.718 109.688C167.495 109.42 168.286 109.196 169.088 109.016C169.37 108.937 169.659 108.884 169.951 108.859Z" fill="#89544C"/>
<path d="M173.201 111.812C172.972 111.93 172.731 112.024 172.483 112.092C172.018 112.26 171.363 112.501 170.528 112.843C168.387 113.691 166.441 114.967 164.808 116.591C163.945 117.502 163.285 118.584 162.869 119.768C162.532 120.739 162.36 121.76 162.359 122.788C162.385 123.733 162.517 124.673 162.752 125.589C162.752 125.589 162.712 125.533 162.662 125.41C162.589 125.227 162.527 125.04 162.477 124.849C162.275 124.171 162.166 123.468 162.152 122.76C162.089 120.387 162.969 118.086 164.6 116.361C166.26 114.721 168.255 113.462 170.45 112.669C171.284 112.35 171.968 112.109 172.45 112.002C172.693 111.913 172.944 111.849 173.201 111.812Z" fill="#89544C"/>
<path d="M176.579 118.832C176.579 118.832 176.545 118.883 176.444 118.944C176.298 119.031 176.136 119.09 175.968 119.118C175.347 119.189 174.719 119.092 174.147 118.838C173.765 118.685 173.369 118.568 172.965 118.49C172.507 118.425 172.04 118.479 171.609 118.647C170.618 119.105 169.678 119.668 168.808 120.328C167.906 120.926 167.124 121.686 166.5 122.569C166.099 123.384 165.604 124.149 165.026 124.849C164.78 125.107 164.497 125.326 164.186 125.499C163.943 125.629 163.671 125.691 163.396 125.679C163.226 125.673 163.058 125.643 162.897 125.589C162.791 125.55 162.735 125.527 162.74 125.516C162.746 125.505 162.976 125.572 163.396 125.567C163.647 125.555 163.891 125.482 164.107 125.354C164.395 125.177 164.655 124.96 164.881 124.709C165.42 123.996 165.887 123.23 166.276 122.424C166.899 121.488 167.703 120.686 168.64 120.065C169.122 119.717 169.598 119.404 170.063 119.101C170.513 118.795 170.998 118.545 171.509 118.356C171.982 118.179 172.494 118.129 172.993 118.21C173.41 118.302 173.817 118.433 174.209 118.602C174.747 118.865 175.342 118.991 175.94 118.967C176.157 118.946 176.372 118.9 176.579 118.832Z" fill="#89544C"/>
<path d="M180.445 132.043C180.292 131.977 180.151 131.888 180.024 131.78C179.659 131.517 179.313 131.229 178.988 130.917C176.805 128.858 175.328 126.162 174.769 123.213C174.679 122.772 174.621 122.324 174.595 121.874C174.567 121.711 174.567 121.545 174.595 121.381C174.646 121.381 174.708 122.076 174.965 123.174C175.633 126.042 177.077 128.67 179.139 130.771C179.918 131.573 180.478 132.004 180.445 132.043Z" fill="#89544C"/>
<path d="M189.235 130.307C189.041 130.685 188.77 131.019 188.44 131.287C187.675 131.978 186.766 132.489 185.778 132.783C184.79 133.076 183.748 133.141 182.73 132.974C182.308 132.928 181.898 132.798 181.526 132.593C181.526 132.542 182.002 132.688 182.758 132.772C183.745 132.876 184.742 132.785 185.693 132.503C186.643 132.222 187.529 131.755 188.299 131.13C188.893 130.648 189.196 130.273 189.235 130.307Z" fill="#89544C"/>
<path d="M200.541 203.751C197.848 205.918 194.419 206.954 190.977 206.64C187.535 206.327 184.349 204.688 182.092 202.07C179.515 199.056 177.47 195.347 177.783 191.386C178.579 181.442 178.097 142.044 178.097 142.044L193.908 137.982C193.908 137.982 206.094 185.604 206.693 193.913C206.968 197.549 203.987 201.012 200.541 203.751Z" fill="#B47266"/>
<path d="M73.2546 187.055H91.396L101.436 183.526L104.355 175.749C104.355 175.749 110.249 171.267 116.373 176.926C122.496 182.585 126.272 193.908 126.272 193.908L110.025 199.566C110.025 199.566 99.8896 207.141 98.7074 207.163L66.2737 207.6C66.2737 207.6 65.9487 193.185 73.2546 187.055Z" fill="#B47266"/>
<path d="M114.759 183.403L112.636 149.131C112.62 148.827 112.666 148.523 112.771 148.237C112.877 147.952 113.039 147.691 113.249 147.47C113.459 147.249 113.711 147.074 113.991 146.954C114.271 146.834 114.572 146.772 114.877 146.773H133.562C134.138 146.772 134.692 146.993 135.11 147.391C135.527 147.788 135.775 148.331 135.803 148.907L137.147 183.173C137.157 183.473 137.106 183.773 136.998 184.053C136.89 184.333 136.726 184.589 136.517 184.805C136.308 185.021 136.058 185.192 135.781 185.31C135.504 185.427 135.207 185.487 134.906 185.487H116.978C116.413 185.483 115.872 185.266 115.46 184.879C115.049 184.493 114.799 183.966 114.759 183.403Z" fill="#263238"/>
<path d="M134.99 167.984C134.969 167.847 134.957 167.708 134.957 167.569C134.957 167.267 134.923 166.869 134.901 166.376C134.867 165.306 134.822 163.816 134.766 161.989C134.71 160.163 134.665 157.927 134.604 155.484C134.574 154.256 134.546 152.974 134.52 151.641C134.548 150.98 134.472 150.318 134.296 149.68C134.19 149.374 133.995 149.106 133.735 148.913C133.464 148.727 133.15 148.613 132.822 148.582C132.134 148.543 131.443 148.543 130.755 148.582L128.721 148.627L124.878 148.7L118.373 148.812L115.874 148.845C115.252 148.812 114.627 148.851 114.014 148.963C113.826 149.004 113.651 149.087 113.499 149.205C113.348 149.324 113.225 149.474 113.14 149.646C113.095 149.774 113.073 149.909 113.073 150.044C113.026 149.91 113.026 149.764 113.073 149.63C113.146 149.437 113.263 149.263 113.414 149.123C113.566 148.983 113.748 148.88 113.947 148.823C114.568 148.686 115.204 148.627 115.84 148.649L118.339 148.571L124.844 148.397L128.687 148.307L130.721 148.257C131.425 148.218 132.13 148.218 132.833 148.257C133.209 148.298 133.569 148.431 133.881 148.644C134.182 148.873 134.406 149.187 134.525 149.546C134.712 150.214 134.791 150.908 134.761 151.602C134.783 152.935 134.805 154.216 134.828 155.445C134.867 157.888 134.901 160.09 134.929 161.95C134.957 163.81 134.962 165.272 134.974 166.337C134.974 166.835 134.974 167.233 134.974 167.53C134.994 167.68 135 167.833 134.99 167.984Z" fill="#455A64"/>
<path d="M124.541 154.689C124.438 154.456 124.262 154.263 124.04 154.138C123.818 154.013 123.562 153.963 123.309 153.994C123.162 153.956 123.01 153.95 122.861 153.977C122.712 154.003 122.57 154.061 122.445 154.146C122.321 154.231 122.216 154.343 122.137 154.472C122.059 154.601 122.01 154.746 121.992 154.896C121.981 155.204 122.074 155.507 122.258 155.754C122.441 156.001 122.703 156.179 123.001 156.258C123.224 156.319 123.458 156.323 123.683 156.271C123.909 156.218 124.117 156.109 124.289 155.955C124.457 155.796 124.571 155.589 124.616 155.362C124.661 155.135 124.635 154.9 124.541 154.689Z" fill="#E0E0E0"/>
<path d="M103.996 176.702V173.212C103.996 173.212 107.425 165.144 107.324 165.441C107.223 165.738 113.403 161.491 113.403 161.491C113.614 163.267 113.546 165.064 113.202 166.819C112.799 168.139 112.102 169.349 111.162 170.36L110.68 174.125L118.446 167.799L127.707 162.931C128.256 162.887 128.808 162.986 129.308 163.218C129.808 163.451 130.239 163.81 130.559 164.259C131.741 165.833 130.066 167.407 129.281 167.9C128.497 168.393 121.437 173.503 121.437 173.503L117.516 178.024L118.35 178.977L125.275 174.584C125.275 174.584 134.032 168.192 135.999 167.794H136.105C136.468 167.734 136.84 167.786 137.173 167.941C137.505 168.096 137.784 168.348 137.971 168.664C138.159 168.979 138.247 169.344 138.224 169.711C138.201 170.078 138.068 170.429 137.842 170.718C135.433 173.85 131.287 179.178 131.08 178.994C130.783 178.736 121.79 184.932 121.79 184.932C121.79 184.932 130.783 181.98 131.573 181.291C132.363 180.602 140.425 172.046 140.425 172.046C140.425 172.046 141.506 172.242 141.702 174.702L141.215 177.162C141.215 177.162 141.411 177.75 141.702 179.027C141.994 180.305 137.472 189.067 137.472 189.067C137.472 189.067 119.762 198.805 118.093 198.905C116.423 199.006 110.221 198.905 110.221 198.905L103.996 176.702Z" fill="#B47266"/>
<path d="M141.024 176.842C140.946 177.104 140.833 177.355 140.688 177.587C140.322 178.239 139.912 178.866 139.461 179.464C138.901 180.231 138.206 181.105 137.5 182.131C136.72 183.247 135.833 184.285 134.85 185.229C133.01 186.881 130.956 188.277 128.743 189.38C127.909 189.817 127.225 190.154 126.743 190.383C126.505 190.515 126.253 190.622 125.992 190.703C126.212 190.54 126.446 190.4 126.693 190.282L128.648 189.201C130.809 188.052 132.824 186.647 134.649 185.016C135.619 184.086 136.501 183.068 137.282 181.974C137.999 180.954 138.722 180.086 139.293 179.34C139.865 178.595 140.307 177.973 140.587 177.531C140.719 177.292 140.865 177.062 141.024 176.842Z" fill="#89544C"/>
<path d="M76.93 185.05C75.7693 185.597 74.6752 186.276 73.6693 187.073C71.3158 189.101 69.5381 191.714 68.5148 194.647C67.5202 197.59 66.8898 200.644 66.6379 203.741C66.5259 204.895 66.4362 205.841 66.369 206.542C66.3354 206.85 66.313 207.102 66.2906 207.309C66.2887 207.399 66.2716 207.488 66.2401 207.573C66.2315 207.483 66.2315 207.393 66.2401 207.304C66.2401 207.097 66.2401 206.839 66.2682 206.536C66.2682 205.87 66.3466 204.9 66.4418 203.707C66.6285 200.584 67.2295 197.5 68.2291 194.535C69.2658 191.554 71.0987 188.913 73.5292 186.899C74.2703 186.306 75.0813 185.805 75.9439 185.409C76.2465 185.257 76.5042 185.185 76.6611 185.117C76.7486 185.087 76.8386 185.065 76.93 185.05Z" fill="#263238"/>
<path d="M121.964 212.127L170.707 224.24L245.665 218.464L260.49 158.897C261.565 155.305 259.75 153.339 257.459 153.35L187.526 156.812C186.449 156.873 185.422 157.287 184.604 157.991C183.787 158.695 183.224 159.65 183.005 160.706L170.718 219.596L121.975 209.085L121.964 212.127Z" fill="#EBEBEB"/>
<path d="M121.964 212.127C121.964 212.127 121.964 211.886 121.964 211.382C121.964 210.878 121.964 210.11 121.964 209.085H121.998L170.769 219.517L170.646 219.596L176.478 191.582L179.767 175.805C180.331 173.082 180.906 170.32 181.492 167.519C181.784 166.118 182.077 164.706 182.372 163.283C182.523 162.572 182.669 161.86 182.82 161.143C182.931 160.4 183.193 159.687 183.588 159.048C183.996 158.401 184.547 157.855 185.199 157.454C185.85 157.053 186.585 156.807 187.347 156.734C188.843 156.639 190.339 156.577 191.829 156.499L200.99 156.045L219.927 155.098L239.586 154.123L249.671 153.624L254.758 153.372L257.313 153.243C258.213 153.185 259.101 153.474 259.795 154.05C260.376 154.561 260.77 155.251 260.916 156.011C261.044 156.755 261.025 157.516 260.86 158.252C260.508 159.672 260.157 161.085 259.806 162.493C259.108 165.299 258.413 168.1 257.722 170.897C256.336 176.452 254.973 181.927 253.632 187.324C250.943 198.115 248.343 208.558 245.856 218.565V218.66H245.755L170.791 224.397L134.968 215.433L125.27 212.957L122.793 212.329C122.233 212.189 121.964 212.111 121.964 212.111L122.816 212.312L125.314 212.923L134.945 215.287L170.741 224.162H170.713L245.665 218.352L245.542 218.453C248.029 208.446 250.629 197.997 253.307 187.207C254.652 181.813 256.013 176.336 257.391 170.774C258.086 167.999 258.783 165.198 259.481 162.37C259.829 160.97 260.176 159.569 260.529 158.151C260.685 157.456 260.704 156.736 260.585 156.034C260.456 155.341 260.104 154.709 259.582 154.235C258.294 153.075 256.405 153.647 254.741 153.63L249.654 153.882L239.569 154.381L219.91 155.35L200.973 156.286L191.812 156.74C190.305 156.818 188.798 156.874 187.33 156.969C186.61 157.04 185.916 157.273 185.3 157.652C184.683 158.03 184.161 158.544 183.773 159.154C183.398 159.77 183.148 160.453 183.039 161.166C182.893 161.877 182.742 162.594 182.596 163.3C182.293 164.723 182.002 166.135 181.705 167.536C181.123 170.341 180.545 173.103 179.974 175.822C178.853 181.257 177.753 186.516 176.674 191.599C174.545 201.746 172.578 211.136 170.802 219.613V219.708H170.702L121.958 209.13V209.102C121.958 210.122 121.958 210.884 121.958 211.388C121.958 211.892 121.964 212.127 121.964 212.127Z" fill="#263238"/>
<path d="M218.285 183.262C217.552 183.375 216.862 183.678 216.283 184.141C215.703 184.604 215.256 185.211 214.985 185.901C214.741 186.602 214.748 187.365 215.004 188.061C215.261 188.757 215.751 189.342 216.391 189.717C217.949 190.507 219.966 189.582 220.873 188.086C221.151 187.607 221.326 187.075 221.388 186.524C221.449 185.974 221.396 185.416 221.232 184.887C220.907 183.767 218.991 183.033 218.285 183.262Z" fill="white"/>
<path d="M218.285 183.263C218.549 183.157 218.842 183.145 219.114 183.229C219.435 183.297 219.746 183.406 220.039 183.554C220.441 183.738 220.794 184.014 221.07 184.361C221.231 184.57 221.342 184.814 221.395 185.073C221.464 185.338 221.507 185.611 221.523 185.885C221.564 186.501 221.465 187.117 221.232 187.689C220.944 188.335 220.497 188.897 219.932 189.323C219.368 189.749 218.705 190.026 218.005 190.126C217.26 190.221 216.507 190.02 215.91 189.566C215.363 189.142 214.97 188.552 214.789 187.885C214.626 187.287 214.626 186.657 214.789 186.059C214.941 185.545 215.203 185.071 215.557 184.669C216.069 184.099 216.722 183.672 217.45 183.431C217.646 183.365 217.846 183.315 218.05 183.28C218.19 183.28 218.263 183.28 218.263 183.28C218.263 183.28 217.977 183.353 217.489 183.549C216.803 183.82 216.194 184.255 215.713 184.815C215.391 185.201 215.156 185.652 215.024 186.137C214.875 186.687 214.875 187.268 215.024 187.818C215.188 188.426 215.544 188.964 216.038 189.353C216.579 189.758 217.257 189.935 217.926 189.846C218.575 189.751 219.19 189.496 219.716 189.105C220.242 188.714 220.663 188.198 220.941 187.605C221.165 187.074 221.266 186.5 221.238 185.924C221.243 185.426 221.113 184.937 220.862 184.507C220.611 184.177 220.289 183.907 219.921 183.717C219.642 183.566 219.347 183.448 219.041 183.364C218.797 183.288 218.541 183.254 218.285 183.263Z" fill="#263238"/>
<path d="M70.274 75.5293H31.7445C30.8099 75.5293 29.9135 75.9006 29.2526 76.5615C28.5917 77.2224 28.2205 78.1187 28.2205 79.0534V117.583C28.2205 118.517 28.5917 119.414 29.2526 120.075C29.9135 120.736 30.8099 121.107 31.7445 121.107H58.402L69.1255 129.937V121.107H70.274C71.2086 121.107 72.105 120.736 72.7659 120.075C73.4268 119.414 73.7981 118.517 73.7981 117.583V79.0534C73.7981 78.1187 73.4268 77.2224 72.7659 76.5615C72.105 75.9006 71.2086 75.5293 70.274 75.5293Z" fill="white"/>
<path d="M32.1704 75.5294H70.4365C71.3281 75.5294 72.1831 75.8836 72.8135 76.514C73.444 77.1444 73.7981 77.9994 73.7981 78.891V89.7882C73.7981 89.8223 73.7845 89.8551 73.7604 89.8793C73.7362 89.9034 73.7034 89.917 73.6693 89.917H28.3494C28.3152 89.917 28.2824 89.9034 28.2583 89.8793C28.2341 89.8551 28.2205 89.8223 28.2205 89.7882V79.4737C28.2175 78.9544 28.3177 78.4397 28.5152 77.9594C28.7127 77.4792 29.0037 77.0429 29.3711 76.676C29.7386 76.3091 30.1752 76.0188 30.6558 75.822C31.1363 75.6251 31.6511 75.5257 32.1704 75.5294Z" fill="#FF8080"/>
<path d="M47.8803 96.7126V112.204H44.2946V99.5868H41.1963V96.7126H47.8803Z" fill="#263238"/>
<path d="M62.716 96.7126V99.0321L56.962 112.204H53.0402L58.598 99.6316H53.4604V102.153H50.2725V96.7126H62.716Z" fill="#263238"/>
<path d="M57.3768 83.6923C57.3768 83.7763 54.2449 83.8379 50.3847 83.8379C46.5244 83.8379 43.387 83.7763 43.387 83.6923C43.387 83.6082 46.5188 83.5354 50.3903 83.5354C54.2617 83.5354 57.3768 83.6138 57.3768 83.6923Z" fill="#263238"/>
<path d="M70.274 75.5294H70.5149C70.7497 75.5394 70.9827 75.5751 71.2097 75.6358C72.1112 75.8733 72.8824 76.4573 73.3555 77.2606C73.699 77.8475 73.8698 78.5194 73.8485 79.1991C73.8485 79.9387 73.8485 80.7398 73.8485 81.6027C73.8485 83.3395 73.8485 85.3284 73.8485 87.5583C73.8485 92.0124 73.8485 97.4133 73.8765 103.582C73.8765 106.669 73.8765 109.952 73.8765 113.409C73.8765 114.272 73.8765 115.146 73.8765 116.031V117.364C73.8927 117.829 73.8302 118.293 73.6916 118.737C73.4656 119.421 73.0412 120.022 72.4725 120.464C71.9039 120.906 71.2166 121.169 70.4981 121.219C70.0107 121.247 69.5569 121.219 69.0807 121.219L69.2095 121.09C69.2095 123.891 69.2095 126.855 69.2095 129.92V130.206L68.9854 130.021L58.2619 121.202L58.3516 121.23H31.6997C31.2845 121.222 30.8737 121.144 30.484 121.001C29.6989 120.717 29.036 120.17 28.6071 119.454C28.3949 119.108 28.2415 118.73 28.1533 118.334C28.0859 117.936 28.0596 117.532 28.0748 117.129V110.148C28.0748 104.019 28.0748 98.1081 28.0748 92.4774C28.0748 89.6761 28.0748 86.914 28.0748 84.2471C28.0748 82.9137 28.0748 81.6064 28.0748 80.3252C28.0498 79.6764 28.0723 79.0267 28.142 78.3811C28.2639 77.7377 28.5558 77.1386 28.9873 76.646C29.4188 76.1535 29.9742 75.7853 30.596 75.5798C31.1977 75.4158 31.8229 75.3552 32.4449 75.4005H36.0026H42.6865L62.8561 75.4453H68.3411H69.7642C70.0891 75.4453 70.2516 75.4453 70.2516 75.4453H69.7642H68.3411L62.8561 75.4733L42.6865 75.5238H32.4617C31.8663 75.4801 31.2678 75.5369 30.6913 75.6918C30.1037 75.9234 29.5904 76.3108 29.2066 76.8124C28.7996 77.2708 28.5229 77.8299 28.4054 78.4315C28.3413 79.0625 28.3225 79.6972 28.3493 80.3308V84.2527C28.3493 86.9196 28.3493 89.6705 28.3493 92.483C28.3493 98.0857 28.3493 104.024 28.3493 110.154V117.152C28.3338 117.536 28.3582 117.921 28.4222 118.3C28.5398 118.861 28.7986 119.382 29.1741 119.814C29.5497 120.247 30.0295 120.576 30.568 120.771C31.3219 120.982 32.1078 121.054 32.8875 120.984H58.4356L58.4748 121.012L69.1927 129.847L68.9686 129.954C68.9686 126.889 68.9686 123.908 68.9686 121.124V120.995H69.1031C69.5681 120.995 70.0499 120.995 70.5037 120.995C70.9508 120.961 71.3868 120.839 71.7867 120.636C72.1813 120.438 72.5328 120.163 72.8212 119.829C73.1096 119.494 73.3292 119.106 73.4675 118.687C73.603 118.269 73.6636 117.831 73.6468 117.392V116.031C73.6468 115.146 73.6468 114.272 73.6468 113.409C73.6468 109.952 73.6468 106.686 73.6468 103.582C73.6468 97.4189 73.6468 92.0124 73.6468 87.5583C73.6468 85.3172 73.6468 83.3395 73.6468 81.6027C73.6468 79.8658 73.8709 78.3363 73.1874 77.3054C72.7348 76.5096 71.9854 75.9254 71.1032 75.6806C70.8312 75.6086 70.554 75.558 70.274 75.5294Z" fill="#263238"/>
<path d="M57.8081 71.0639H57.7128C56.9207 71.0639 56.2786 71.7061 56.2786 72.4982V79.9217C56.2786 80.7138 56.9207 81.356 57.7128 81.356H57.8081C58.6002 81.356 59.2424 80.7138 59.2424 79.9217V72.4982C59.2424 71.7061 58.6002 71.0639 57.8081 71.0639Z" fill="#E0E0E0"/>
<path d="M57.8138 81.3557C58.1188 81.3128 58.4079 81.1933 58.6542 81.0083C58.9306 80.784 59.1076 80.46 59.1472 80.1063C59.1472 79.6973 59.1472 79.1875 59.1472 78.6496C59.1472 77.5291 59.1472 76.2573 59.1192 74.8286C59.1192 74.1059 59.1192 73.3495 59.1192 72.5875C59.1284 72.4039 59.0985 72.2204 59.0315 72.0492C58.9645 71.878 58.862 71.7229 58.7307 71.5943C58.5994 71.4656 58.4423 71.3663 58.2697 71.3028C58.0972 71.2393 57.9131 71.2132 57.7297 71.2261C57.5452 71.2268 57.3629 71.2666 57.1948 71.3429C57.0268 71.4192 56.8768 71.5302 56.7549 71.6687C56.6379 71.8084 56.5499 71.9701 56.496 72.1442C56.4421 72.3183 56.4235 72.5014 56.4411 72.6828C56.4411 73.4672 56.4411 74.2235 56.4411 74.9238C56.4411 76.3525 56.4411 77.6467 56.4411 78.7505C56.4411 79.0194 56.4411 79.2771 56.4411 79.5236C56.4208 79.7491 56.4208 79.976 56.4411 80.2015C56.5111 80.55 56.7115 80.8586 57.0014 81.0644C57.2619 81.2326 57.5605 81.3327 57.8698 81.3557C57.7885 81.3725 57.7046 81.3725 57.6233 81.3557C57.3802 81.344 57.1445 81.2686 56.9398 81.1372C56.6101 80.9252 56.3753 80.594 56.2842 80.2128C56.2484 79.9774 56.2353 79.7391 56.245 79.5012C56.245 79.2547 56.245 78.997 56.245 78.728C56.245 77.6075 56.245 76.3301 56.2114 74.9014C56.2114 74.1843 56.2114 73.4279 56.2114 72.6604C56.1916 72.4443 56.2151 72.2265 56.2805 72.0197C56.3459 71.8128 56.4519 71.6211 56.5924 71.4558C56.739 71.2817 56.9216 71.1415 57.1276 71.0447C57.3336 70.948 57.5582 70.8971 57.7858 70.8955C58.0103 70.8807 58.2355 70.914 58.4461 70.9932C58.6568 71.0724 58.8481 71.1957 59.0072 71.3548C59.1664 71.514 59.2897 71.7053 59.3689 71.916C59.4481 72.1266 59.4814 72.3518 59.4666 72.5763C59.4666 73.3551 59.4666 74.1115 59.4666 74.8174C59.4666 76.2461 59.4666 77.5347 59.4329 78.6384C59.4329 79.1987 59.4329 79.6637 59.3937 80.1175C59.3698 80.3083 59.3079 80.4923 59.2117 80.6588C59.1154 80.8253 58.9868 80.9708 58.8335 81.0868C58.6412 81.2331 58.4126 81.3241 58.1723 81.3501C58.0578 81.3969 57.9298 81.3989 57.8138 81.3557Z" fill="#263238"/>
<path d="M43.8967 71.0639H43.8015C43.0093 71.0639 42.3672 71.7061 42.3672 72.4982V79.9217C42.3672 80.7138 43.0093 81.356 43.8015 81.356H43.8967C44.6888 81.356 45.331 80.7138 45.331 79.9217V72.4982C45.331 71.7061 44.6888 71.0639 43.8967 71.0639Z" fill="#E0E0E0"/>
<path d="M43.8967 81.356C44.2037 81.3146 44.495 81.195 44.7427 81.0087C45.019 80.7844 45.1961 80.4604 45.2357 80.1066C45.2357 79.6976 45.2357 79.1878 45.2357 78.6499C45.2357 77.5294 45.2357 76.2576 45.2021 74.8289C45.2021 74.1062 45.2021 73.3498 45.2021 72.5879C45.2112 72.4043 45.1814 72.2208 45.1144 72.0496C45.0474 71.8783 44.9449 71.7233 44.8136 71.5946C44.6823 71.4659 44.5251 71.3666 44.3526 71.3031C44.1801 71.2397 43.996 71.2135 43.8126 71.2264C43.628 71.2267 43.4456 71.2664 43.2775 71.3427C43.1094 71.419 42.9595 71.5303 42.8377 71.669C42.7198 71.8083 42.6307 71.9698 42.5759 72.1439C42.5211 72.318 42.5015 72.5013 42.5184 72.6831C42.5184 73.4675 42.5184 74.2239 42.5184 74.9242C42.5184 76.3529 42.5184 77.6471 42.4848 78.7508C42.4848 79.0197 42.4848 79.2774 42.4848 79.524C42.4642 79.7495 42.4642 79.9764 42.4848 80.2019C42.5526 80.5512 42.7535 80.8606 43.045 81.0647C43.3034 81.2331 43.6003 81.3333 43.9079 81.356C43.9079 81.356 43.8294 81.356 43.6613 81.356C43.4201 81.3441 43.1862 81.2687 42.9834 81.1375C42.6521 80.9273 42.4167 80.5953 42.3279 80.2131C42.2929 79.9776 42.2779 79.7396 42.2831 79.5016C42.2831 79.255 42.2831 78.9973 42.2831 78.7284C42.2831 77.6079 42.2831 76.3304 42.2831 74.9018C42.2831 74.1846 42.2831 73.4283 42.2831 72.6607C42.2502 72.2242 42.3889 71.792 42.6697 71.4561C42.816 71.2818 42.9986 71.1413 43.2046 71.0446C43.4107 70.9478 43.6354 70.8971 43.863 70.8959C44.0874 70.8819 44.3121 70.9159 44.5224 70.9954C44.7326 71.0749 44.9235 71.1983 45.0825 71.3572C45.2414 71.5162 45.3648 71.7071 45.4443 71.9173C45.5238 72.1276 45.5578 72.3523 45.5438 72.5767C45.5438 73.3554 45.5438 74.1118 45.5438 74.8177C45.5438 76.2464 45.5438 77.535 45.5438 78.6387C45.5438 79.199 45.5438 79.664 45.5046 80.1178C45.4521 80.5019 45.2509 80.8499 44.9443 81.0871C44.7515 81.2324 44.5232 81.3234 44.2832 81.3504C44.1601 81.403 44.0213 81.405 43.8967 81.356Z" fill="#263238"/>
<g opacity="0.3">
<path opacity="0.3" d="M40.6695 75.9608C40.8563 77.7856 40.6817 79.6293 40.1557 81.3866C39.6296 83.1438 38.7625 84.7802 37.6037 86.2022C36.445 87.6242 35.0174 88.8039 33.4026 89.674C31.7878 90.544 30.0173 91.0874 28.1924 91.2729L28.7526 83.614L35.6943 76.0673L40.6695 75.9608Z" fill="black"/>
</g>
<path d="M28.4617 88.0873C35.4586 86.3233 39.7007 79.2212 37.9367 72.2243C36.1727 65.2274 29.0706 60.9853 22.0738 62.7493C15.0769 64.5133 10.8348 71.6154 12.5988 78.6123C14.3628 85.6092 21.4648 89.8513 28.4617 88.0873Z" fill="white"/>
<path d="M25.2511 89.8948C22.4761 89.893 19.7601 89.0935 17.4268 87.5914C15.0935 86.0893 13.2412 83.948 12.0908 81.4227C10.9404 78.8974 10.5402 76.0946 10.9381 73.3483C11.336 70.602 12.515 68.0279 14.3348 65.9329C16.1546 63.8379 18.5384 62.3103 21.202 61.5321C23.8657 60.754 26.6969 60.758 29.3583 61.5438C32.0197 62.3297 34.3991 63.8641 36.2128 65.9643C38.0266 68.0645 39.1983 70.6419 39.5883 73.3894C40.1226 77.1887 39.1287 81.0448 36.8245 84.1126C34.5203 87.1803 31.0938 89.2093 27.2961 89.7547C26.6184 89.8482 25.9351 89.895 25.2511 89.8948ZM25.2847 63.7696C24.7224 63.769 24.1607 63.8083 23.6039 63.8873C21.3233 64.2147 19.191 65.2107 17.4763 66.7496C15.7616 68.2885 14.5416 70.3011 13.9703 72.5331C13.3991 74.7651 13.5022 77.1164 14.2668 79.2898C15.0314 81.4632 16.4231 83.3612 18.2659 84.7439C20.1088 86.1267 22.3202 86.9321 24.6207 87.0585C26.9212 87.1849 29.2075 86.6265 31.1908 85.4539C33.1741 84.2814 34.7653 82.5473 35.7633 80.4707C36.7614 78.3941 37.1215 76.0683 36.7982 73.7872C36.4047 71.0119 35.024 68.4714 32.9094 66.6315C30.7947 64.7916 28.0877 63.7755 25.2847 63.7696Z" fill="#455A64"/>
<path d="M25.2846 63.7695C25.3478 63.7607 25.4119 63.7607 25.4751 63.7695C25.5984 63.7695 25.7832 63.7695 26.0354 63.7695C26.7498 63.8014 27.4593 63.9046 28.1532 64.0776C29.2541 64.3476 30.3094 64.778 31.2851 65.355C32.5849 66.1211 33.726 67.1291 34.6466 68.3245C35.7602 69.779 36.5146 71.476 36.8485 73.2772C36.9344 73.7686 36.9942 74.2642 37.0278 74.7619C37.0418 75.0176 37.0418 75.2738 37.0278 75.5295C37.0278 75.7872 37.0278 76.0505 37.0278 76.3138C36.938 77.3895 36.7121 78.4494 36.3555 79.4681C35.938 80.53 35.3823 81.5322 34.7027 82.4487C33.9879 83.3923 33.145 84.2314 32.1983 84.9419C30.1741 86.4254 27.7298 87.2252 25.2202 87.2252C22.7106 87.2252 20.2663 86.4254 18.2421 84.9419C16.36 83.5586 14.9338 81.6448 14.1465 79.4457C13.7982 78.4128 13.5836 77.3396 13.5078 76.2522C13.4364 75.2365 13.4967 74.2158 13.6871 73.2156C14.107 71.01 15.1546 68.9726 16.7039 67.3477C18.2532 65.7228 20.2386 64.5796 22.4217 64.0552C22.8755 63.9544 23.2845 63.8815 23.6374 63.8367L24.5395 63.7863H25.0997H25.2902L25.0997 63.8143L24.5395 63.8647L23.643 63.9432C23.2901 63.9992 22.8923 64.0776 22.4441 64.1897C21.3595 64.4717 20.3202 64.9056 19.357 65.4783C18.0921 66.241 16.9821 67.235 16.085 68.4085C14.9974 69.8375 14.2587 71.5009 13.928 73.266C13.7434 74.2462 13.6888 75.2465 13.7655 76.241C13.8518 77.2919 14.0721 78.3274 14.4211 79.3225C14.811 80.3619 15.3366 81.3453 15.9842 82.2471C16.6931 83.1681 17.5243 83.988 18.455 84.6842C20.4312 86.1276 22.815 86.9054 25.2622 86.9054C27.7094 86.9054 30.0932 86.1276 32.0694 84.6842C33.9114 83.3403 35.3133 81.4802 36.0977 79.3393C36.4552 78.3458 36.6812 77.3099 36.7701 76.2578C36.8037 76.0057 36.7701 75.748 36.7701 75.4958C36.784 75.2458 36.784 74.9952 36.7701 74.7451C36.7196 74.2521 36.6972 73.759 36.602 73.2828C36.281 71.5163 35.552 69.8491 34.473 68.4141C32.8908 66.3257 30.6568 64.8253 28.1252 64.1505C27.4388 63.9699 26.7374 63.8517 26.0298 63.7975C25.5423 63.7807 25.2846 63.7863 25.2846 63.7695Z" fill="#263238"/>
<path d="M25.2512 89.8946H25.4865L26.17 89.8553C26.4725 89.8553 26.8423 89.7937 27.2905 89.7265L28.7864 89.4183C30.1295 89.0547 31.4182 88.5139 32.6187 87.8104C34.1929 86.8513 35.5743 85.6067 36.6918 84.1406C38.0364 82.3562 38.951 80.2855 39.3643 78.0898C39.429 77.7943 39.4739 77.4948 39.4987 77.1933C39.4987 76.8908 39.5659 76.5883 39.594 76.2801C39.622 75.972 39.594 75.6582 39.594 75.3445V74.8682L39.5491 74.392C39.4625 73.0811 39.1909 71.789 38.7424 70.5542C37.7325 67.7963 35.9029 65.4135 33.4992 63.7259C31.0955 62.0383 28.2329 61.1268 25.296 61.1137C22.3511 61.1067 19.4758 62.0078 17.0616 63.6941C14.6474 65.3804 12.8117 67.77 11.8048 70.5374C10.9175 72.9402 10.6987 75.5388 11.1717 78.0561C11.3785 79.1954 11.7228 80.3054 12.197 81.3617C12.425 81.8568 12.6794 82.3393 12.9589 82.8072L13.3735 83.4851L13.8385 84.107C14.9421 85.5813 16.3193 86.8291 17.8949 87.7824C19.0914 88.4938 20.3812 89.035 21.7271 89.3903C22.2168 89.5233 22.7146 89.6244 23.2174 89.6929C23.5878 89.7608 23.962 89.8057 24.3379 89.8273L25.0271 89.8721H25.2624C25.1842 89.882 25.1052 89.882 25.0271 89.8721H24.3379C23.9626 89.8633 23.5883 89.8297 23.2174 89.7713C22.7108 89.7115 22.209 89.616 21.7159 89.4856C18.5093 88.7087 15.6693 86.8483 13.6761 84.2191L13.2055 83.5916L12.7796 82.908C12.4926 82.4348 12.2308 81.9466 11.9953 81.4458C11.5113 80.3713 11.1577 79.2427 10.942 78.0842C10.4415 75.5209 10.6468 72.8698 11.5359 70.4141C12.5548 67.5886 14.4222 65.1471 16.8825 63.424C19.3428 61.7009 22.2755 60.7805 25.2792 60.7888C28.2806 60.7909 31.2086 61.7176 33.6646 63.4428C36.1207 65.1681 37.9856 67.6081 39.0057 70.4309C39.4621 71.6928 39.7356 73.0135 39.8181 74.3528L39.8573 74.8346V75.3164C39.8573 75.6358 39.8573 75.9551 39.8573 76.2689C39.8573 76.5826 39.7901 76.8964 39.7564 77.2045C39.7326 77.5102 39.6857 77.8136 39.6164 78.1122C39.1867 80.3415 38.2471 82.4412 36.8711 84.2471C35.7298 85.7231 34.3216 86.9717 32.7195 87.928C31.5005 88.6273 30.1926 89.1588 28.8313 89.508L27.3185 89.7937C26.8815 89.8497 26.5062 89.8777 26.198 89.889C25.8899 89.9002 25.6377 89.889 25.5089 89.889C25.38 89.889 25.2512 89.8946 25.2512 89.8946Z" fill="#263238"/>
<path d="M32.1012 57.3727L30.9075 59.2871L38.5842 64.0738L39.7779 62.1594L32.1012 57.3727Z" fill="#455A64"/>
<path d="M38.3613 64.178C38.4492 63.9855 38.5483 63.7985 38.6583 63.6177L39.4819 62.2451V62.3683C37.745 61.3206 34.9381 59.595 31.795 57.6285L31.9967 57.5837V57.6173L31.9575 57.6789L31.879 57.7966L31.7278 58.0431L31.4252 58.5249C31.231 58.8424 31.0443 59.1561 30.865 59.4662L30.8201 59.2701C32.9772 60.6259 34.8541 61.8305 36.2099 62.7157L37.8123 63.7634C38.0062 63.8917 38.1932 64.03 38.3725 64.178C38.1786 64.0867 37.9914 63.9819 37.8123 63.8642L36.1931 62.9006C34.8148 62.0714 32.8651 60.8892 30.6521 59.539L30.5288 59.4606L30.6072 59.3429L31.1675 58.3961L31.4701 57.9142L31.6213 57.6733L31.6998 57.55L31.739 57.4884V57.4604L31.9351 57.4156C35.0838 59.3821 37.8627 61.147 39.5659 62.2507L39.6387 62.3011L39.5939 62.3739C39.1905 62.9902 38.8712 63.4609 38.6583 63.7802C38.5691 63.9199 38.4699 64.0528 38.3613 64.178Z" fill="#263238"/>
<path d="M13.4343 60.5622L7.15796 67.7039L8.84975 69.1907L15.1261 62.049L13.4343 60.5622Z" fill="#455A64"/>
<path d="M8.8578 69.1871C8.8578 69.1871 9.02588 68.9629 9.32843 68.5932L10.6114 67.0524C11.732 65.7582 13.2447 63.971 15.0039 61.954V62.1557L13.3231 60.671H13.5304L13.4968 60.7102L13.4352 60.7775L13.3175 60.9119L13.0766 61.1865L12.6004 61.7467L11.6703 62.8056L9.95032 64.7442L7.24984 67.7584V67.6351C7.73727 68.0889 8.13506 68.4643 8.44881 68.7556C8.76256 69.047 8.88582 69.1814 8.88582 69.1927C8.72371 69.0939 8.57171 68.9794 8.432 68.8509C8.13506 68.61 7.69245 68.2458 7.13779 67.7696L7.07056 67.7136L7.12658 67.6519L9.78224 64.5593L11.463 62.6095C11.76 62.2622 12.0681 61.9148 12.3819 61.5562C12.5331 61.377 12.6956 61.1977 12.8525 60.996L13.0934 60.7214L13.2111 60.587L13.2727 60.5141L13.3063 60.4805H13.5136L15.1944 61.9708L15.3009 62.0661L15.2056 62.1725C13.3904 64.2231 11.788 66.0047 10.6451 67.2597L9.30602 68.722C9.16632 68.8861 9.01663 69.0414 8.8578 69.1871Z" fill="#263238"/>
<path d="M19.5645 76.5661L20.6794 74.4483L24.6629 76.2468L28.9489 68.4423L30.9547 69.5964L25.4024 79.4403L19.5645 76.5661Z" fill="#455A64"/>
<path d="M25.4078 79.4568L19.5754 76.5714L20.696 74.4368L24.657 76.252L28.9431 68.4083L30.96 69.5681L25.4078 79.4568ZM19.5754 76.5602L25.391 79.4175L30.932 69.6017L28.9487 68.4812L24.6683 76.252L20.696 74.4648L19.5754 76.5602Z" fill="#263238"/>
<path d="M17.4802 91.5528C17.2672 91.491 17.0623 91.4045 16.8695 91.295C16.6437 91.1873 16.4248 91.0656 16.214 90.9309C15.913 90.7596 15.6212 90.5726 15.34 90.3706C14.5956 89.8724 13.8964 89.31 13.2502 88.6898C12.4612 87.9288 11.7447 87.096 11.1099 86.2022C10.4876 85.301 9.94938 84.3445 9.50199 83.3449C9.14637 82.5241 8.85965 81.6752 8.64478 80.8069C8.55812 80.4746 8.48892 80.1379 8.43748 79.7984C8.38528 79.5451 8.34972 79.2887 8.33103 79.0308C8.29746 78.814 8.28619 78.5944 8.29741 78.3753C8.35344 78.3753 8.44308 79.3053 8.85768 80.7564C9.09585 81.6033 9.39738 82.4311 9.75971 83.2328C10.2125 84.2108 10.7486 85.148 11.3621 86.0341C11.9738 86.9217 12.6598 87.7558 13.4126 88.5273C14.0437 89.1376 14.7198 89.6995 15.4352 90.2081C16.6566 91.0989 17.5082 91.5023 17.4802 91.5528Z" fill="#263238"/>
<path d="M10.869 88.5777C10.5117 88.2613 10.1971 87.8997 9.93339 87.502C9.25311 86.5717 8.65866 85.5815 8.15735 84.5438C7.6573 83.5009 7.2577 82.4128 6.96398 81.2942C6.80845 80.8422 6.71607 80.3709 6.68945 79.8936C6.86811 80.3321 7.01967 80.7811 7.14327 81.2382C7.49047 82.322 7.90974 83.3814 8.39826 84.4093C8.89434 85.4305 9.45577 86.4186 10.0791 87.3675C10.3713 87.7513 10.6353 88.1557 10.869 88.5777Z" fill="#263238"/>
<path d="M189.412 74.7646L192.176 69.8886L193.05 68.3466L192.121 66.8371C188.621 61.1499 187.375 54.3592 188.627 47.7999C189.88 41.2405 193.54 35.3868 198.889 31.3893C204.239 27.3918 210.89 25.5396 217.535 26.1968C224.181 26.8539 230.34 29.973 234.803 34.9408C239.265 39.9086 241.708 46.3659 241.652 53.0436C241.595 59.7212 239.043 66.1362 234.497 71.0277C229.951 75.9193 223.739 78.9335 217.084 79.478C210.505 80.0163 203.681 77.7642 198.336 73.6271L197.185 72.7359L195.772 73.089L193.772 73.589L193.746 73.5958L193.719 73.603L189.412 74.7646Z" stroke="white" stroke-width="6"/>
<path d="M218.24 39.1903L217.249 54.8777C217.209 55.4981 216.943 56.0824 216.503 56.5209C216.062 56.9594 215.477 57.2219 214.856 57.2589C214.208 57.299 213.569 57.089 213.071 56.6721C212.572 56.2552 212.253 55.6631 212.178 55.0178L210.436 39.2519C210.401 38.9688 210.428 38.6816 210.514 38.4096C210.599 38.1376 210.742 37.8871 210.933 37.6749C211.123 37.4626 211.357 37.2936 211.618 37.179C211.879 37.0645 212.162 37.0072 212.447 37.0108L216.274 37.0669C216.544 37.0709 216.811 37.1298 217.058 37.2399C217.305 37.3501 217.528 37.5092 217.711 37.7077C217.895 37.9062 218.037 38.14 218.128 38.3948C218.219 38.6496 218.257 38.9202 218.24 39.1903Z" fill="#06A77D"/>
<path d="M211.523 66.0834C211.761 66.8031 212.207 67.4361 212.805 67.9022C213.403 68.3683 214.125 68.6466 214.881 68.7019C215.638 68.7573 216.393 68.5871 217.052 68.213C217.712 67.8388 218.245 67.2775 218.586 66.6001C218.926 65.9227 219.058 65.1595 218.964 64.4072C218.871 63.6549 218.556 62.9473 218.06 62.3738C217.564 61.8003 216.91 61.3867 216.179 61.1853C215.448 60.984 214.674 61.004 213.954 61.2427C212.991 61.5638 212.194 62.2536 211.739 63.1608C211.283 64.0681 211.205 65.119 211.523 66.0834Z" fill="#06A77D"/>
</svg>
