<svg width="12" height="13" viewBox="0 0 12 13" fill="none" xmlns="http://www.w3.org/2000/svg">
<path fill-rule="evenodd" clip-rule="evenodd" d="M6.47139 1.36201C6.21104 1.10166 5.78893 1.10166 5.52858 1.36201C5.26823 1.62236 5.26823 2.04447 5.52858 2.30482L9.05724 5.83348H1.33332C0.965133 5.83348 0.666656 6.13196 0.666656 6.50015C0.666656 6.86834 0.965133 7.16681 1.33332 7.16681H9.05711L5.52858 10.6953C5.26823 10.9557 5.26823 11.3778 5.52858 11.6382C5.78893 11.8985 6.21104 11.8985 6.47139 11.6382L11.1381 6.97149C11.3984 6.71114 11.3984 6.28903 11.1381 6.02868L6.47139 1.36201Z" fill="white"/>
<path d="M5.52858 1.36201L5.17502 1.00846L5.17502 1.00846L5.52858 1.36201ZM6.47139 1.36201L6.82494 1.00846V1.00846L6.47139 1.36201ZM5.52858 2.30482L5.17502 2.65837L5.17502 2.65837L5.52858 2.30482ZM9.05724 5.83348V6.33348C9.25947 6.33348 9.44179 6.21166 9.51918 6.02482C9.59657 5.83798 9.55379 5.62293 9.41079 5.47993L9.05724 5.83348ZM9.05711 7.16681L9.41066 7.52037C9.55366 7.37737 9.59644 7.16231 9.51905 6.97547C9.44166 6.78863 9.25934 6.66681 9.05711 6.66681V7.16681ZM5.52858 11.6382L5.17502 11.9917L5.52858 11.6382ZM6.47139 11.6382L6.82494 11.9917L6.47139 11.6382ZM11.1381 6.97149L10.7845 6.61793L10.7845 6.61793L11.1381 6.97149ZM11.1381 6.02868L10.7845 6.38223L10.7845 6.38223L11.1381 6.02868ZM5.88213 1.71556C5.94722 1.65048 6.05274 1.65048 6.11783 1.71556L6.82494 1.00846C6.36933 0.552845 5.63064 0.552845 5.17502 1.00846L5.88213 1.71556ZM5.88213 1.95127C5.81704 1.88618 5.81704 1.78065 5.88213 1.71556L5.17502 1.00846C4.71941 1.46407 4.71941 2.20276 5.17502 2.65837L5.88213 1.95127ZM9.41079 5.47993L5.88213 1.95127L5.17502 2.65837L8.70368 6.18703L9.41079 5.47993ZM1.33332 6.33348H9.05724V5.33348H1.33332V6.33348ZM1.16666 6.50015C1.16666 6.4081 1.24128 6.33348 1.33332 6.33348V5.33348C0.688991 5.33348 0.166656 5.85581 0.166656 6.50015H1.16666ZM1.33332 6.66681C1.24128 6.66681 1.16666 6.59219 1.16666 6.50015H0.166656C0.166656 7.14448 0.688991 7.66681 1.33332 7.66681V6.66681ZM9.05711 6.66681H1.33332V7.66681H9.05711V6.66681ZM5.88213 11.0489L9.41066 7.52037L8.70355 6.81326L5.17502 10.3418L5.88213 11.0489ZM5.88213 11.2846C5.81704 11.2195 5.81704 11.114 5.88213 11.0489L5.17502 10.3418C4.71941 10.7974 4.71941 11.5361 5.17502 11.9917L5.88213 11.2846ZM6.11783 11.2846C6.05275 11.3497 5.94722 11.3497 5.88213 11.2846L5.17502 11.9917C5.63064 12.4473 6.36933 12.4473 6.82494 11.9917L6.11783 11.2846ZM10.7845 6.61793L6.11783 11.2846L6.82494 11.9917L11.4916 7.32504L10.7845 6.61793ZM10.7845 6.38223C10.8496 6.44732 10.8496 6.55284 10.7845 6.61793L11.4916 7.32504C11.9472 6.86943 11.9472 6.13073 11.4916 5.67512L10.7845 6.38223ZM6.11783 1.71556L10.7845 6.38223L11.4916 5.67512L6.82494 1.00846L6.11783 1.71556Z" fill="white"/>
</svg>
